<?xml version="1.0" encoding="utf-8"?>
<svg xmlns="http://www.w3.org/2000/svg" xmlns:xlink="http://www.w3.org/1999/xlink" width="750" height="500" viewBox="0 0 3000 2000">
<defs>
  <clipPath id="clip340">
    <rect x="0" y="0" width="3000" height="2000"/>
  </clipPath>
</defs>
<path clip-path="url(#clip340)" d="
M0 2000 L3000 2000 L3000 0 L0 0  Z
  " fill="#ffffff" fill-rule="evenodd" fill-opacity="1"/>
<defs>
  <clipPath id="clip341">
    <rect x="600" y="0" width="2101" height="2000"/>
  </clipPath>
</defs>
<path clip-path="url(#clip340)" d="
M258.495 1769.02 L2940.94 1769.02 L2940.94 131.136 L258.495 131.136  Z
  " fill="#ffffff" fill-rule="evenodd" fill-opacity="1"/>
<defs>
  <clipPath id="clip342">
    <rect x="258" y="131" width="2683" height="1639"/>
  </clipPath>
</defs>
<polyline clip-path="url(#clip342)" style="stroke:#000000; stroke-width:10; stroke-opacity:0.3; fill:none" points="
  417.12,1769.02 417.12,131.136 
  "/>
<polyline clip-path="url(#clip342)" style="stroke:#000000; stroke-width:10; stroke-opacity:0.3; fill:none" points="
  1809.26,1769.02 1809.26,131.136 
  "/>
<polyline clip-path="url(#clip340)" style="stroke:#000000; stroke-width:5; stroke-opacity:1; fill:none" points="
  258.495,1769.02 2940.94,1769.02 
  "/>
<polyline clip-path="url(#clip340)" style="stroke:#000000; stroke-width:5; stroke-opacity:1; fill:none" points="
  258.495,131.136 2940.94,131.136 
  "/>
<polyline clip-path="url(#clip340)" style="stroke:#000000; stroke-width:5; stroke-opacity:1; fill:none" points="
  417.12,1769.02 417.12,1749.37 
  "/>
<polyline clip-path="url(#clip340)" style="stroke:#000000; stroke-width:5; stroke-opacity:1; fill:none" points="
  1809.26,1769.02 1809.26,1749.37 
  "/>
<path clip-path="url(#clip340)" d="M 0 0 M376.659 1866.86 L386.208 1866.86 L386.208 1833.9 L375.82 1835.99 L375.82 1830.66 L386.15 1828.58 L391.995 1828.58 L391.995 1866.86 L401.543 1866.86 L401.543 1871.78 L376.659 1871.78 L376.659 1866.86 Z" fill="#000000" fill-rule="evenodd" fill-opacity="1" /><path clip-path="url(#clip340)" d="M 0 0 M420.38 1832.43 Q415.866 1832.43 413.58 1836.88 Q411.323 1841.31 411.323 1850.22 Q411.323 1859.11 413.58 1863.56 Q415.866 1867.99 420.38 1867.99 Q424.923 1867.99 427.18 1863.56 Q429.466 1859.11 429.466 1850.22 Q429.466 1841.31 427.18 1836.88 Q424.923 1832.43 420.38 1832.43 M420.38 1827.8 Q427.643 1827.8 431.462 1833.56 Q435.31 1839.29 435.31 1850.22 Q435.31 1861.13 431.462 1866.89 Q427.643 1872.62 420.38 1872.62 Q413.117 1872.62 409.269 1866.89 Q405.449 1861.13 405.449 1850.22 Q405.449 1839.29 409.269 1833.56 Q413.117 1827.8 420.38 1827.8 Z" fill="#000000" fill-rule="evenodd" fill-opacity="1" /><path clip-path="url(#clip340)" d="M 0 0 M451.179 1818.59 Q454.588 1819.32 456.493 1821.62 Q458.42 1823.93 458.42 1827.31 Q458.42 1832.51 454.847 1835.35 Q451.273 1838.2 444.691 1838.2 Q442.481 1838.2 440.13 1837.75 Q437.802 1837.33 435.31 1836.46 L435.31 1831.87 Q437.285 1833.03 439.636 1833.61 Q441.987 1834.2 444.55 1834.2 Q449.017 1834.2 451.344 1832.44 Q453.695 1830.68 453.695 1827.31 Q453.695 1824.21 451.509 1822.47 Q449.346 1820.71 445.467 1820.71 L441.376 1820.71 L441.376 1816.8 L445.655 1816.8 Q449.158 1816.8 451.015 1815.42 Q452.872 1814.01 452.872 1811.37 Q452.872 1808.67 450.944 1807.24 Q449.04 1805.78 445.467 1805.78 Q443.515 1805.78 441.282 1806.2 Q439.048 1806.63 436.368 1807.52 L436.368 1803.29 Q439.072 1802.53 441.423 1802.16 Q443.797 1801.78 445.89 1801.78 Q451.297 1801.78 454.447 1804.25 Q457.598 1806.7 457.598 1810.88 Q457.598 1813.8 455.928 1815.82 Q454.259 1817.82 451.179 1818.59 Z" fill="#000000" fill-rule="evenodd" fill-opacity="1" /><path clip-path="url(#clip340)" d="M 0 0 M1767.56 1866.86 L1777.11 1866.86 L1777.11 1833.9 L1766.72 1835.99 L1766.72 1830.66 L1777.05 1828.58 L1782.9 1828.58 L1782.9 1866.86 L1792.45 1866.86 L1792.45 1871.78 L1767.56 1871.78 L1767.56 1866.86 Z" fill="#000000" fill-rule="evenodd" fill-opacity="1" /><path clip-path="url(#clip340)" d="M 0 0 M1811.28 1832.43 Q1806.77 1832.43 1804.48 1836.88 Q1802.23 1841.31 1802.23 1850.22 Q1802.23 1859.11 1804.48 1863.56 Q1806.77 1867.99 1811.28 1867.99 Q1815.83 1867.99 1818.08 1863.56 Q1820.37 1859.11 1820.37 1850.22 Q1820.37 1841.31 1818.08 1836.88 Q1815.83 1832.43 1811.28 1832.43 M1811.28 1827.8 Q1818.55 1827.8 1822.37 1833.56 Q1826.21 1839.29 1826.21 1850.22 Q1826.21 1861.13 1822.37 1866.89 Q1818.55 1872.62 1811.28 1872.62 Q1804.02 1872.62 1800.17 1866.89 Q1796.35 1861.13 1796.35 1850.22 Q1796.35 1839.29 1800.17 1833.56 Q1804.02 1827.8 1811.28 1827.8 Z" fill="#000000" fill-rule="evenodd" fill-opacity="1" /><path clip-path="url(#clip340)" d="M 0 0 M1842.06 1806.55 L1830.07 1825.29 L1842.06 1825.29 L1842.06 1806.55 M1840.81 1802.42 L1846.78 1802.42 L1846.78 1825.29 L1851.79 1825.29 L1851.79 1829.24 L1846.78 1829.24 L1846.78 1837.52 L1842.06 1837.52 L1842.06 1829.24 L1826.21 1829.24 L1826.21 1824.66 L1840.81 1802.42 Z" fill="#000000" fill-rule="evenodd" fill-opacity="1" /><path clip-path="url(#clip340)" d="M 0 0 M1244.38 1918.66 L1244.38 1938.95 L1253.57 1938.95 Q1258.67 1938.95 1261.45 1936.31 Q1264.24 1933.67 1264.24 1928.78 Q1264.24 1923.94 1261.45 1921.3 Q1258.67 1918.66 1253.57 1918.66 L1244.38 1918.66 M1237.07 1912.65 L1253.57 1912.65 Q1262.65 1912.65 1267.27 1916.78 Q1271.94 1920.86 1271.94 1928.78 Q1271.94 1936.78 1267.27 1940.86 Q1262.65 1944.95 1253.57 1944.95 L1244.38 1944.95 L1244.38 1966.65 L1237.07 1966.65 L1237.07 1912.65 Z" fill="#000000" fill-rule="evenodd" fill-opacity="1" /><path clip-path="url(#clip340)" d="M 0 0 M1301.09 1932.36 Q1299.97 1931.71 1298.63 1931.42 Q1297.33 1931.1 1295.74 1931.1 Q1290.1 1931.1 1287.06 1934.79 Q1284.06 1938.44 1284.06 1945.31 L1284.06 1966.65 L1277.37 1966.65 L1277.37 1926.14 L1284.06 1926.14 L1284.06 1932.44 Q1286.15 1928.75 1289.52 1926.97 Q1292.88 1925.17 1297.69 1925.17 Q1298.38 1925.17 1299.21 1925.27 Q1300.04 1925.35 1301.06 1925.53 L1301.09 1932.36 Z" fill="#000000" fill-rule="evenodd" fill-opacity="1" /><path clip-path="url(#clip340)" d="M 0 0 M1308.07 1926.14 L1314.73 1926.14 L1314.73 1966.65 L1308.07 1966.65 L1308.07 1926.14 M1308.07 1910.37 L1314.73 1910.37 L1314.73 1918.8 L1308.07 1918.8 L1308.07 1910.37 Z" fill="#000000" fill-rule="evenodd" fill-opacity="1" /><path clip-path="url(#clip340)" d="M 0 0 M1353.25 1933.92 Q1355.74 1929.43 1359.22 1927.3 Q1362.69 1925.17 1367.39 1925.17 Q1373.72 1925.17 1377.16 1929.61 Q1380.59 1934.03 1380.59 1942.2 L1380.59 1966.65 L1373.9 1966.65 L1373.9 1942.42 Q1373.9 1936.6 1371.84 1933.77 Q1369.78 1930.95 1365.55 1930.95 Q1360.37 1930.95 1357.37 1934.39 Q1354.37 1937.83 1354.37 1943.76 L1354.37 1966.65 L1347.68 1966.65 L1347.68 1942.42 Q1347.68 1936.56 1345.62 1933.77 Q1343.55 1930.95 1339.25 1930.95 Q1334.15 1930.95 1331.15 1934.43 Q1328.15 1937.86 1328.15 1943.76 L1328.15 1966.65 L1321.46 1966.65 L1321.46 1926.14 L1328.15 1926.14 L1328.15 1932.44 Q1330.43 1928.71 1333.61 1926.94 Q1336.79 1925.17 1341.17 1925.17 Q1345.58 1925.17 1348.65 1927.41 Q1351.77 1929.65 1353.25 1933.92 Z" fill="#000000" fill-rule="evenodd" fill-opacity="1" /><path clip-path="url(#clip340)" d="M 0 0 M1405.98 1946.29 Q1397.92 1946.29 1394.81 1948.13 Q1391.7 1949.98 1391.7 1954.43 Q1391.7 1957.97 1394.01 1960.07 Q1396.36 1962.13 1400.38 1962.13 Q1405.91 1962.13 1409.24 1958.22 Q1412.6 1954.28 1412.6 1947.77 L1412.6 1946.29 L1405.98 1946.29 M1419.26 1943.54 L1419.26 1966.65 L1412.6 1966.65 L1412.6 1960.5 Q1410.32 1964.19 1406.92 1965.96 Q1403.52 1967.7 1398.6 1967.7 Q1392.38 1967.7 1388.69 1964.23 Q1385.04 1960.72 1385.04 1954.86 Q1385.04 1948.02 1389.6 1944.55 Q1394.19 1941.08 1403.27 1941.08 L1412.6 1941.08 L1412.6 1940.43 Q1412.6 1935.84 1409.56 1933.34 Q1406.56 1930.81 1401.1 1930.81 Q1397.63 1930.81 1394.34 1931.64 Q1391.04 1932.47 1388.01 1934.14 L1388.01 1927.99 Q1391.66 1926.58 1395.1 1925.89 Q1398.53 1925.17 1401.79 1925.17 Q1410.58 1925.17 1414.92 1929.72 Q1419.26 1934.28 1419.26 1943.54 Z" fill="#000000" fill-rule="evenodd" fill-opacity="1" /><path clip-path="url(#clip340)" d="M 0 0 M1449.71 1932.36 Q1448.59 1931.71 1447.25 1931.42 Q1445.95 1931.1 1444.36 1931.1 Q1438.71 1931.1 1435.68 1934.79 Q1432.67 1938.44 1432.67 1945.31 L1432.67 1966.65 L1425.98 1966.65 L1425.98 1926.14 L1432.67 1926.14 L1432.67 1932.44 Q1434.77 1928.75 1438.14 1926.97 Q1441.5 1925.17 1446.31 1925.17 Q1447 1925.17 1447.83 1925.27 Q1448.66 1925.35 1449.67 1925.53 L1449.71 1932.36 Z" fill="#000000" fill-rule="evenodd" fill-opacity="1" /><path clip-path="url(#clip340)" d="M 0 0 M1473.55 1970.41 Q1470.72 1977.65 1468.05 1979.85 Q1465.37 1982.06 1460.89 1982.06 L1455.57 1982.06 L1455.57 1976.49 L1459.48 1976.49 Q1462.22 1976.49 1463.74 1975.19 Q1465.26 1973.89 1467.11 1969.04 L1468.3 1966 L1451.92 1926.14 L1458.97 1926.14 L1471.63 1957.83 L1484.29 1926.14 L1491.34 1926.14 L1473.55 1970.41 Z" fill="#000000" fill-rule="evenodd" fill-opacity="1" /><path clip-path="url(#clip340)" d="M 0 0 M1522.16 1912.65 L1556.3 1912.65 L1556.3 1918.8 L1529.46 1918.8 L1529.46 1934.79 L1555.18 1934.79 L1555.18 1940.94 L1529.46 1940.94 L1529.46 1960.5 L1556.95 1960.5 L1556.95 1966.65 L1522.16 1966.65 L1522.16 1912.65 Z" fill="#000000" fill-rule="evenodd" fill-opacity="1" /><path clip-path="url(#clip340)" d="M 0 0 M1597.6 1942.2 L1597.6 1966.65 L1590.95 1966.65 L1590.95 1942.42 Q1590.95 1936.67 1588.71 1933.81 Q1586.46 1930.95 1581.98 1930.95 Q1576.59 1930.95 1573.48 1934.39 Q1570.37 1937.83 1570.37 1943.76 L1570.37 1966.65 L1563.68 1966.65 L1563.68 1926.14 L1570.37 1926.14 L1570.37 1932.44 Q1572.76 1928.78 1575.98 1926.97 Q1579.23 1925.17 1583.46 1925.17 Q1590.44 1925.17 1594.02 1929.51 Q1597.6 1933.81 1597.6 1942.2 Z" fill="#000000" fill-rule="evenodd" fill-opacity="1" /><path clip-path="url(#clip340)" d="M 0 0 M1639.23 1944.73 L1639.23 1947.99 L1608.64 1947.99 Q1609.07 1954.86 1612.76 1958.48 Q1616.48 1962.06 1623.1 1962.06 Q1626.94 1962.06 1630.52 1961.12 Q1634.13 1960.18 1637.68 1958.3 L1637.68 1964.59 Q1634.1 1966.11 1630.34 1966.9 Q1626.58 1967.7 1622.71 1967.7 Q1613.01 1967.7 1607.33 1962.06 Q1601.69 1956.42 1601.69 1946.8 Q1601.69 1936.85 1607.04 1931.03 Q1612.43 1925.17 1621.55 1925.17 Q1629.72 1925.17 1634.46 1930.45 Q1639.23 1935.69 1639.23 1944.73 M1632.58 1942.78 Q1632.51 1937.32 1629.51 1934.06 Q1626.54 1930.81 1621.62 1930.81 Q1616.05 1930.81 1612.69 1933.96 Q1609.36 1937.1 1608.85 1942.82 L1632.58 1942.78 Z" fill="#000000" fill-rule="evenodd" fill-opacity="1" /><path clip-path="url(#clip340)" d="M 0 0 M1669.69 1932.36 Q1668.57 1931.71 1667.23 1931.42 Q1665.93 1931.1 1664.34 1931.1 Q1658.69 1931.1 1655.66 1934.79 Q1652.65 1938.44 1652.65 1945.31 L1652.65 1966.65 L1645.96 1966.65 L1645.96 1926.14 L1652.65 1926.14 L1652.65 1932.44 Q1654.75 1928.75 1658.11 1926.97 Q1661.48 1925.17 1666.29 1925.17 Q1666.98 1925.17 1667.81 1925.27 Q1668.64 1925.35 1669.65 1925.53 L1669.69 1932.36 Z" fill="#000000" fill-rule="evenodd" fill-opacity="1" /><path clip-path="url(#clip340)" d="M 0 0 M1702.02 1945.93 Q1702.02 1938.69 1699.02 1934.71 Q1696.06 1930.74 1690.67 1930.74 Q1685.31 1930.74 1682.31 1934.71 Q1679.35 1938.69 1679.35 1945.93 Q1679.35 1953.12 1682.31 1957.1 Q1685.31 1961.08 1690.67 1961.08 Q1696.06 1961.08 1699.02 1957.1 Q1702.02 1953.12 1702.02 1945.93 M1708.68 1961.62 Q1708.68 1971.97 1704.09 1977 Q1699.49 1982.06 1690.02 1982.06 Q1686.51 1982.06 1683.4 1981.52 Q1680.29 1981.01 1677.36 1979.93 L1677.36 1973.45 Q1680.29 1975.04 1683.14 1975.8 Q1686 1976.56 1688.97 1976.56 Q1695.51 1976.56 1698.77 1973.13 Q1702.02 1969.73 1702.02 1962.82 L1702.02 1959.53 Q1699.96 1963.11 1696.74 1964.88 Q1693.52 1966.65 1689.04 1966.65 Q1681.59 1966.65 1677.03 1960.97 Q1672.47 1955.29 1672.47 1945.93 Q1672.47 1936.52 1677.03 1930.84 Q1681.59 1925.17 1689.04 1925.17 Q1693.52 1925.17 1696.74 1926.94 Q1699.96 1928.71 1702.02 1932.29 L1702.02 1926.14 L1708.68 1926.14 L1708.68 1961.62 Z" fill="#000000" fill-rule="evenodd" fill-opacity="1" /><path clip-path="url(#clip340)" d="M 0 0 M1732.51 1970.41 Q1729.69 1977.65 1727.02 1979.85 Q1724.34 1982.06 1719.85 1982.06 L1714.54 1982.06 L1714.54 1976.49 L1718.44 1976.49 Q1721.19 1976.49 1722.71 1975.19 Q1724.23 1973.89 1726.08 1969.04 L1727.27 1966 L1710.88 1926.14 L1717.94 1926.14 L1730.6 1957.83 L1743.26 1926.14 L1750.31 1926.14 L1732.51 1970.41 Z" fill="#000000" fill-rule="evenodd" fill-opacity="1" /><path clip-path="url(#clip340)" d="M 0 0 M1796.82 1910.45 Q1791.98 1918.76 1789.62 1926.9 Q1787.27 1935.04 1787.27 1943.4 Q1787.27 1951.75 1789.62 1959.96 Q1792.01 1968.13 1796.82 1976.42 L1791.03 1976.42 Q1785.61 1967.92 1782.9 1959.71 Q1780.22 1951.5 1780.22 1943.4 Q1780.22 1935.33 1782.9 1927.16 Q1785.57 1918.98 1791.03 1910.45 L1796.82 1910.45 Z" fill="#000000" fill-rule="evenodd" fill-opacity="1" /><path clip-path="url(#clip340)" d="M 0 0 M1840.91 1958.95 L1840.91 1944.44 L1828.98 1944.44 L1828.98 1938.44 L1848.15 1938.44 L1848.15 1961.62 Q1843.91 1964.63 1838.81 1966.18 Q1833.71 1967.7 1827.93 1967.7 Q1815.27 1967.7 1808.11 1960.32 Q1800.98 1952.91 1800.98 1939.71 Q1800.98 1926.47 1808.11 1919.09 Q1815.27 1911.68 1827.93 1911.68 Q1833.21 1911.68 1837.95 1912.98 Q1842.72 1914.28 1846.73 1916.81 L1846.73 1924.59 Q1842.68 1921.15 1838.13 1919.42 Q1833.57 1917.68 1828.54 1917.68 Q1818.63 1917.68 1813.64 1923.21 Q1808.69 1928.75 1808.69 1939.71 Q1808.69 1950.63 1813.64 1956.16 Q1818.63 1961.7 1828.54 1961.7 Q1832.41 1961.7 1835.45 1961.05 Q1838.49 1960.36 1840.91 1958.95 Z" fill="#000000" fill-rule="evenodd" fill-opacity="1" /><path clip-path="url(#clip340)" d="M 0 0 M1889.78 1944.73 L1889.78 1947.99 L1859.18 1947.99 Q1859.61 1954.86 1863.3 1958.48 Q1867.03 1962.06 1873.64 1962.06 Q1877.48 1962.06 1881.06 1961.12 Q1884.68 1960.18 1888.22 1958.3 L1888.22 1964.59 Q1884.64 1966.11 1880.88 1966.9 Q1877.12 1967.7 1873.25 1967.7 Q1863.55 1967.7 1857.87 1962.06 Q1852.23 1956.42 1852.23 1946.8 Q1852.23 1936.85 1857.59 1931.03 Q1862.97 1925.17 1872.09 1925.17 Q1880.26 1925.17 1885 1930.45 Q1889.78 1935.69 1889.78 1944.73 M1883.12 1942.78 Q1883.05 1937.32 1880.05 1934.06 Q1877.08 1930.81 1872.16 1930.81 Q1866.59 1930.81 1863.23 1933.96 Q1859.9 1937.1 1859.39 1942.82 L1883.12 1942.78 Z" fill="#000000" fill-rule="evenodd" fill-opacity="1" /><path clip-path="url(#clip340)" d="M 0 0 M1910.97 1966.65 L1890.35 1912.65 L1897.99 1912.65 L1915.09 1958.12 L1932.24 1912.65 L1939.83 1912.65 L1919.25 1966.65 L1910.97 1966.65 Z" fill="#000000" fill-rule="evenodd" fill-opacity="1" /><path clip-path="url(#clip340)" d="M 0 0 M1945.77 1910.45 L1951.55 1910.45 Q1956.98 1918.98 1959.65 1927.16 Q1962.37 1935.33 1962.37 1943.4 Q1962.37 1951.5 1959.65 1959.71 Q1956.98 1967.92 1951.55 1976.42 L1945.77 1976.42 Q1950.58 1968.13 1952.93 1959.96 Q1955.31 1951.75 1955.31 1943.4 Q1955.31 1935.04 1952.93 1926.9 Q1950.58 1918.76 1945.77 1910.45 Z" fill="#000000" fill-rule="evenodd" fill-opacity="1" /><polyline clip-path="url(#clip342)" style="stroke:#000000; stroke-width:10; stroke-opacity:0.3; fill:none" points="
  258.495,1769.02 2940.94,1769.02 
  "/>
<polyline clip-path="url(#clip342)" style="stroke:#000000; stroke-width:10; stroke-opacity:0.3; fill:none" points="
  258.495,1223.06 2940.94,1223.06 
  "/>
<polyline clip-path="url(#clip342)" style="stroke:#000000; stroke-width:10; stroke-opacity:0.3; fill:none" points="
  258.495,677.097 2940.94,677.097 
  "/>
<polyline clip-path="url(#clip342)" style="stroke:#000000; stroke-width:10; stroke-opacity:0.3; fill:none" points="
  258.495,131.136 2940.94,131.136 
  "/>
<polyline clip-path="url(#clip340)" style="stroke:#000000; stroke-width:5; stroke-opacity:1; fill:none" points="
  258.495,1769.02 258.495,131.136 
  "/>
<polyline clip-path="url(#clip340)" style="stroke:#000000; stroke-width:5; stroke-opacity:1; fill:none" points="
  2940.94,1769.02 2940.94,131.136 
  "/>
<polyline clip-path="url(#clip340)" style="stroke:#000000; stroke-width:5; stroke-opacity:1; fill:none" points="
  258.495,1769.02 290.685,1769.02 
  "/>
<polyline clip-path="url(#clip340)" style="stroke:#000000; stroke-width:5; stroke-opacity:1; fill:none" points="
  258.495,1223.06 290.685,1223.06 
  "/>
<polyline clip-path="url(#clip340)" style="stroke:#000000; stroke-width:5; stroke-opacity:1; fill:none" points="
  258.495,677.097 290.685,677.097 
  "/>
<polyline clip-path="url(#clip340)" style="stroke:#000000; stroke-width:5; stroke-opacity:1; fill:none" points="
  258.495,131.136 290.685,131.136 
  "/>
<path clip-path="url(#clip340)" d="M 0 0 M152.356 1751.27 Q147.842 1751.27 145.556 1755.73 Q143.299 1760.15 143.299 1769.06 Q143.299 1777.95 145.556 1782.4 Q147.842 1786.83 152.356 1786.83 Q156.898 1786.83 159.155 1782.4 Q161.441 1777.95 161.441 1769.06 Q161.441 1760.15 159.155 1755.73 Q156.898 1751.27 152.356 1751.27 M152.356 1746.64 Q159.618 1746.64 163.438 1752.4 Q167.286 1758.13 167.286 1769.06 Q167.286 1779.97 163.438 1785.73 Q159.618 1791.46 152.356 1791.46 Q145.093 1791.46 141.245 1785.73 Q137.425 1779.97 137.425 1769.06 Q137.425 1758.13 141.245 1752.4 Q145.093 1746.64 152.356 1746.64 Z" fill="#000000" fill-rule="evenodd" fill-opacity="1" /><path clip-path="url(#clip340)" d="M 0 0 M173.623 1783.27 L179.728 1783.27 L179.728 1790.62 L173.623 1790.62 L173.623 1783.27 Z" fill="#000000" fill-rule="evenodd" fill-opacity="1" /><path clip-path="url(#clip340)" d="M 0 0 M198.565 1751.27 Q194.051 1751.27 191.765 1755.73 Q189.508 1760.15 189.508 1769.06 Q189.508 1777.95 191.765 1782.4 Q194.051 1786.83 198.565 1786.83 Q203.108 1786.83 205.365 1782.4 Q207.651 1777.95 207.651 1769.06 Q207.651 1760.15 205.365 1755.73 Q203.108 1751.27 198.565 1751.27 M198.565 1746.64 Q205.828 1746.64 209.647 1752.4 Q213.495 1758.13 213.495 1769.06 Q213.495 1779.97 209.647 1785.73 Q205.828 1791.46 198.565 1791.46 Q191.302 1791.46 187.454 1785.73 Q183.634 1779.97 183.634 1769.06 Q183.634 1758.13 187.454 1752.4 Q191.302 1746.64 198.565 1746.64 Z" fill="#000000" fill-rule="evenodd" fill-opacity="1" /><path clip-path="url(#clip340)" d="M 0 0 M153.889 1205.31 Q149.375 1205.31 147.089 1209.76 Q144.833 1214.19 144.833 1223.1 Q144.833 1231.99 147.089 1236.44 Q149.375 1240.87 153.889 1240.87 Q158.432 1240.87 160.689 1236.44 Q162.975 1231.99 162.975 1223.1 Q162.975 1214.19 160.689 1209.76 Q158.432 1205.31 153.889 1205.31 M153.889 1200.68 Q161.152 1200.68 164.971 1206.44 Q168.82 1212.17 168.82 1223.1 Q168.82 1234.01 164.971 1239.77 Q161.152 1245.5 153.889 1245.5 Q146.627 1245.5 142.778 1239.77 Q138.959 1234.01 138.959 1223.1 Q138.959 1212.17 142.778 1206.44 Q146.627 1200.68 153.889 1200.68 Z" fill="#000000" fill-rule="evenodd" fill-opacity="1" /><path clip-path="url(#clip340)" d="M 0 0 M175.156 1237.31 L181.262 1237.31 L181.262 1244.66 L175.156 1244.66 L175.156 1237.31 Z" fill="#000000" fill-rule="evenodd" fill-opacity="1" /><path clip-path="url(#clip340)" d="M 0 0 M188.611 1239.74 L198.16 1239.74 L198.16 1206.78 L187.772 1208.87 L187.772 1203.54 L198.102 1201.46 L203.947 1201.46 L203.947 1239.74 L213.495 1239.74 L213.495 1244.66 L188.611 1244.66 L188.611 1239.74 Z" fill="#000000" fill-rule="evenodd" fill-opacity="1" /><path clip-path="url(#clip340)" d="M 0 0 M154.352 659.346 Q149.838 659.346 147.552 663.802 Q145.296 668.229 145.296 677.141 Q145.296 686.024 147.552 690.48 Q149.838 694.907 154.352 694.907 Q158.895 694.907 161.152 690.48 Q163.438 686.024 163.438 677.141 Q163.438 668.229 161.152 663.802 Q158.895 659.346 154.352 659.346 M154.352 654.716 Q161.615 654.716 165.434 660.474 Q169.283 666.203 169.283 677.141 Q169.283 688.049 165.434 693.807 Q161.615 699.537 154.352 699.537 Q147.089 699.537 143.241 693.807 Q139.422 688.049 139.422 677.141 Q139.422 666.203 143.241 660.474 Q147.089 654.716 154.352 654.716 Z" fill="#000000" fill-rule="evenodd" fill-opacity="1" /><path clip-path="url(#clip340)" d="M 0 0 M175.619 691.348 L181.725 691.348 L181.725 698.697 L175.619 698.697 L175.619 691.348 Z" fill="#000000" fill-rule="evenodd" fill-opacity="1" /><path clip-path="url(#clip340)" d="M 0 0 M193.096 693.778 L213.495 693.778 L213.495 698.697 L186.065 698.697 L186.065 693.778 Q189.393 690.335 195.122 684.548 Q200.88 678.732 202.355 677.054 Q205.162 673.9 206.262 671.73 Q207.39 669.531 207.39 667.419 Q207.39 663.975 204.96 661.805 Q202.558 659.635 198.681 659.635 Q195.932 659.635 192.865 660.59 Q189.827 661.545 186.354 663.483 L186.354 657.581 Q189.884 656.163 192.952 655.44 Q196.019 654.716 198.565 654.716 Q205.278 654.716 209.271 658.073 Q213.264 661.429 213.264 667.042 Q213.264 669.705 212.251 672.106 Q211.267 674.479 208.634 677.72 Q207.911 678.559 204.034 682.581 Q200.156 686.574 193.096 693.778 Z" fill="#000000" fill-rule="evenodd" fill-opacity="1" /><path clip-path="url(#clip340)" d="M 0 0 M153.166 113.384 Q148.652 113.384 146.366 117.84 Q144.109 122.267 144.109 131.179 Q144.109 140.062 146.366 144.518 Q148.652 148.945 153.166 148.945 Q157.709 148.945 159.966 144.518 Q162.251 140.062 162.251 131.179 Q162.251 122.267 159.966 117.84 Q157.709 113.384 153.166 113.384 M153.166 108.754 Q160.429 108.754 164.248 114.513 Q168.096 120.242 168.096 131.179 Q168.096 142.088 164.248 147.846 Q160.429 153.575 153.166 153.575 Q145.903 153.575 142.055 147.846 Q138.235 142.088 138.235 131.179 Q138.235 120.242 142.055 114.513 Q145.903 108.754 153.166 108.754 Z" fill="#000000" fill-rule="evenodd" fill-opacity="1" /><path clip-path="url(#clip340)" d="M 0 0 M174.433 145.386 L180.538 145.386 L180.538 152.736 L174.433 152.736 L174.433 145.386 Z" fill="#000000" fill-rule="evenodd" fill-opacity="1" /><path clip-path="url(#clip340)" d="M 0 0 M204.583 129.443 Q208.779 130.34 211.123 133.176 Q213.495 136.011 213.495 140.178 Q213.495 146.573 209.097 150.074 Q204.699 153.575 196.597 153.575 Q193.877 153.575 190.984 153.025 Q188.119 152.504 185.052 151.434 L185.052 145.791 Q187.483 147.209 190.376 147.932 Q193.27 148.656 196.424 148.656 Q201.921 148.656 204.786 146.486 Q207.679 144.316 207.679 140.178 Q207.679 136.358 204.988 134.217 Q202.326 132.047 197.552 132.047 L192.517 132.047 L192.517 127.244 L197.784 127.244 Q202.095 127.244 204.381 125.537 Q206.667 123.801 206.667 120.56 Q206.667 117.232 204.294 115.467 Q201.95 113.673 197.552 113.673 Q195.151 113.673 192.402 114.194 Q189.653 114.715 186.354 115.815 L186.354 110.606 Q189.682 109.68 192.575 109.217 Q195.498 108.754 198.073 108.754 Q204.728 108.754 208.605 111.793 Q212.483 114.802 212.483 119.952 Q212.483 123.54 210.428 126.029 Q208.374 128.488 204.583 129.443 Z" fill="#000000" fill-rule="evenodd" fill-opacity="1" /><path clip-path="url(#clip340)" d="M 0 0 M22.2252 1237.62 L22.2252 1203.48 L28.3739 1203.48 L28.3739 1230.31 L44.3605 1230.31 L44.3605 1204.6 L50.5092 1204.6 L50.5092 1230.31 L70.0765 1230.31 L70.0765 1202.83 L76.2252 1202.83 L76.2252 1237.62 L22.2252 1237.62 Z" fill="#000000" fill-rule="evenodd" fill-opacity="1" /><path clip-path="url(#clip340)" d="M 0 0 M51.7751 1162.17 L76.2252 1162.17 L76.2252 1168.83 L51.9921 1168.83 Q46.2413 1168.83 43.3839 1171.07 Q40.5266 1173.31 40.5266 1177.8 Q40.5266 1183.19 43.9626 1186.3 Q47.3987 1189.41 53.3304 1189.41 L76.2252 1189.41 L76.2252 1196.1 L35.7162 1196.1 L35.7162 1189.41 L42.0095 1189.41 Q38.3565 1187.02 36.548 1183.8 Q34.7396 1180.55 34.7396 1176.31 Q34.7396 1169.33 39.0799 1165.75 Q43.3839 1162.17 51.7751 1162.17 Z" fill="#000000" fill-rule="evenodd" fill-opacity="1" /><path clip-path="url(#clip340)" d="M 0 0 M54.3069 1120.54 L57.5621 1120.54 L57.5621 1151.14 Q64.4342 1150.71 68.0511 1147.02 Q71.6318 1143.29 71.6318 1136.67 Q71.6318 1132.84 70.6914 1129.26 Q69.751 1125.64 67.8702 1122.1 L74.1636 1122.1 Q75.6827 1125.68 76.4784 1129.44 Q77.2741 1133.2 77.2741 1137.07 Q77.2741 1146.76 71.6318 1152.44 Q65.9894 1158.08 56.3685 1158.08 Q46.4221 1158.08 40.5989 1152.73 Q34.7396 1147.34 34.7396 1138.23 Q34.7396 1130.05 40.0202 1125.32 Q45.2647 1120.54 54.3069 1120.54 M52.3538 1127.2 Q46.8923 1127.27 43.6371 1130.27 Q40.3819 1133.24 40.3819 1138.16 Q40.3819 1143.73 43.5286 1147.09 Q46.6753 1150.42 52.39 1150.92 L52.3538 1127.2 Z" fill="#000000" fill-rule="evenodd" fill-opacity="1" /><path clip-path="url(#clip340)" d="M 0 0 M41.9372 1090.09 Q41.2861 1091.21 40.9968 1092.55 Q40.6713 1093.85 40.6713 1095.44 Q40.6713 1101.08 44.3605 1104.12 Q48.0135 1107.12 54.8856 1107.12 L76.2252 1107.12 L76.2252 1113.81 L35.7162 1113.81 L35.7162 1107.12 L42.0095 1107.12 Q38.3203 1105.03 36.548 1101.66 Q34.7396 1098.3 34.7396 1093.49 Q34.7396 1092.8 34.8481 1091.97 Q34.9204 1091.14 35.1013 1090.12 L41.9372 1090.09 Z" fill="#000000" fill-rule="evenodd" fill-opacity="1" /><path clip-path="url(#clip340)" d="M 0 0 M55.5005 1057.75 Q48.2667 1057.75 44.2882 1060.75 Q40.3096 1063.72 40.3096 1069.11 Q40.3096 1074.46 44.2882 1077.46 Q48.2667 1080.43 55.5005 1080.43 Q62.6981 1080.43 66.6766 1077.46 Q70.6552 1074.46 70.6552 1069.11 Q70.6552 1063.72 66.6766 1060.75 Q62.6981 1057.75 55.5005 1057.75 M71.1977 1051.1 Q81.542 1051.1 86.5695 1055.69 Q91.6331 1060.28 91.6331 1069.76 Q91.6331 1073.27 91.0906 1076.38 Q90.5842 1079.49 89.4991 1082.42 L83.0249 1082.42 Q84.6164 1079.49 85.3759 1076.63 Q86.1354 1073.78 86.1354 1070.81 Q86.1354 1064.26 82.6994 1061.01 Q79.2995 1057.75 72.3913 1057.75 L69.0999 1057.75 Q72.6807 1059.81 74.4529 1063.03 Q76.2252 1066.25 76.2252 1070.74 Q76.2252 1078.19 70.5467 1082.75 Q64.8682 1087.3 55.5005 1087.3 Q46.0966 1087.3 40.4181 1082.75 Q34.7396 1078.19 34.7396 1070.74 Q34.7396 1066.25 36.5119 1063.03 Q38.2841 1059.81 41.8648 1057.75 L35.7162 1057.75 L35.7162 1051.1 L71.1977 1051.1 Z" fill="#000000" fill-rule="evenodd" fill-opacity="1" /><path clip-path="url(#clip340)" d="M 0 0 M79.9868 1027.26 Q87.2205 1030.08 89.4268 1032.76 Q91.6331 1035.44 91.6331 1039.92 L91.6331 1045.24 L86.0631 1045.24 L86.0631 1041.33 Q86.0631 1038.58 84.761 1037.06 Q83.459 1035.55 78.6123 1033.7 L75.5742 1032.51 L35.7162 1048.89 L35.7162 1041.84 L67.4 1029.18 L35.7162 1016.52 L35.7162 1009.47 L79.9868 1027.26 Z" fill="#000000" fill-rule="evenodd" fill-opacity="1" /><path clip-path="url(#clip340)" d="M 0 0 M41.9372 955.467 Q41.2861 956.589 40.9968 957.927 Q40.6713 959.229 40.6713 960.82 Q40.6713 966.463 44.3605 969.501 Q48.0135 972.503 54.8856 972.503 L76.2252 972.503 L76.2252 979.194 L35.7162 979.194 L35.7162 972.503 L42.0095 972.503 Q38.3203 970.405 36.548 967.041 Q34.7396 963.678 34.7396 958.867 Q34.7396 958.18 34.8481 957.348 Q34.9204 956.516 35.1013 955.504 L41.9372 955.467 Z" fill="#000000" fill-rule="evenodd" fill-opacity="1" /><path clip-path="url(#clip340)" d="M 0 0 M54.3069 915.465 L57.5621 915.465 L57.5621 946.064 Q64.4342 945.629 68.0511 941.94 Q71.6318 938.215 71.6318 931.596 Q71.6318 927.762 70.6914 924.181 Q69.751 920.565 67.8702 917.02 L74.1636 917.02 Q75.6827 920.601 76.4784 924.362 Q77.2741 928.124 77.2741 931.994 Q77.2741 941.687 71.6318 947.366 Q65.9894 953.008 56.3685 953.008 Q46.4221 953.008 40.5989 947.655 Q34.7396 942.266 34.7396 933.151 Q34.7396 924.977 40.0202 920.239 Q45.2647 915.465 54.3069 915.465 M52.3538 922.12 Q46.8923 922.192 43.6371 925.194 Q40.3819 928.16 40.3819 933.079 Q40.3819 938.649 43.5286 942.013 Q46.6753 945.34 52.39 945.847 L52.3538 922.12 Z" fill="#000000" fill-rule="evenodd" fill-opacity="1" /><path clip-path="url(#clip340)" d="M 0 0 M36.9097 882.66 L43.2031 882.66 Q41.7563 885.481 41.033 888.519 Q40.3096 891.557 40.3096 894.812 Q40.3096 899.767 41.8287 902.263 Q43.3478 904.723 46.3859 904.723 Q48.7007 904.723 50.039 902.95 Q51.3411 901.178 52.5346 895.825 L53.041 893.546 Q54.5601 886.457 57.3451 883.492 Q60.0939 880.49 65.049 880.49 Q70.6914 880.49 73.9827 884.974 Q77.2741 889.423 77.2741 897.236 Q77.2741 900.491 76.6231 904.035 Q76.0082 907.544 74.7423 911.45 L67.8702 911.45 Q69.7872 907.761 70.7637 904.18 Q71.7041 900.599 71.7041 897.091 Q71.7041 892.389 70.1127 889.857 Q68.4851 887.325 65.5554 887.325 Q62.8427 887.325 61.396 889.17 Q59.9492 890.978 58.611 897.163 L58.0685 899.478 Q56.7664 905.663 54.0899 908.412 Q51.3772 911.161 46.6753 911.161 Q40.9606 911.161 37.8501 907.11 Q34.7396 903.059 34.7396 895.608 Q34.7396 891.919 35.2821 888.664 Q35.8247 885.408 36.9097 882.66 Z" fill="#000000" fill-rule="evenodd" fill-opacity="1" /><path clip-path="url(#clip340)" d="M 0 0 M40.3819 857.812 Q40.3819 863.165 44.5775 866.275 Q48.7369 869.386 56.0068 869.386 Q63.2768 869.386 67.4724 866.311 Q71.6318 863.201 71.6318 857.812 Q71.6318 852.495 67.4362 849.384 Q63.2406 846.274 56.0068 846.274 Q48.8093 846.274 44.6137 849.384 Q40.3819 852.495 40.3819 857.812 M34.7396 857.812 Q34.7396 849.131 40.3819 844.176 Q46.0243 839.221 56.0068 839.221 Q65.9533 839.221 71.6318 844.176 Q77.2741 849.131 77.2741 857.812 Q77.2741 866.528 71.6318 871.483 Q65.9533 876.402 56.0068 876.402 Q46.0243 876.402 40.3819 871.483 Q34.7396 866.528 34.7396 857.812 Z" fill="#000000" fill-rule="evenodd" fill-opacity="1" /><path clip-path="url(#clip340)" d="M 0 0 M19.9466 832.24 L19.9466 825.585 L76.2252 825.585 L76.2252 832.24 L19.9466 832.24 Z" fill="#000000" fill-rule="evenodd" fill-opacity="1" /><path clip-path="url(#clip340)" d="M 0 0 M60.2386 819.292 L35.7162 819.292 L35.7162 812.637 L59.9854 812.637 Q65.7362 812.637 68.6298 810.394 Q71.4871 808.152 71.4871 803.667 Q71.4871 798.278 68.0511 795.167 Q64.615 792.021 58.6833 792.021 L35.7162 792.021 L35.7162 785.366 L76.2252 785.366 L76.2252 792.021 L70.0042 792.021 Q73.6934 794.444 75.5018 797.663 Q77.2741 800.846 77.2741 805.078 Q77.2741 812.058 72.9338 815.675 Q68.5936 819.292 60.2386 819.292 M34.7396 802.546 L34.7396 802.546 Z" fill="#000000" fill-rule="evenodd" fill-opacity="1" /><path clip-path="url(#clip340)" d="M 0 0 M24.2145 771.802 L35.7162 771.802 L35.7162 758.094 L40.8883 758.094 L40.8883 771.802 L62.8789 771.802 Q67.834 771.802 69.2446 770.464 Q70.6552 769.09 70.6552 764.93 L70.6552 758.094 L76.2252 758.094 L76.2252 764.93 Q76.2252 772.634 73.3679 775.564 Q70.4744 778.494 62.8789 778.494 L40.8883 778.494 L40.8883 783.376 L35.7162 783.376 L35.7162 778.494 L24.2145 778.494 L24.2145 771.802 Z" fill="#000000" fill-rule="evenodd" fill-opacity="1" /><path clip-path="url(#clip340)" d="M 0 0 M35.7162 751.114 L35.7162 744.459 L76.2252 744.459 L76.2252 751.114 L35.7162 751.114 M19.9466 751.114 L19.9466 744.459 L28.3739 744.459 L28.3739 751.114 L19.9466 751.114 Z" fill="#000000" fill-rule="evenodd" fill-opacity="1" /><path clip-path="url(#clip340)" d="M 0 0 M40.3819 721.781 Q40.3819 727.134 44.5775 730.244 Q48.7369 733.355 56.0068 733.355 Q63.2768 733.355 67.4724 730.281 Q71.6318 727.17 71.6318 721.781 Q71.6318 716.464 67.4362 713.354 Q63.2406 710.243 56.0068 710.243 Q48.8093 710.243 44.6137 713.354 Q40.3819 716.464 40.3819 721.781 M34.7396 721.781 Q34.7396 713.1 40.3819 708.145 Q46.0243 703.19 56.0068 703.19 Q65.9533 703.19 71.6318 708.145 Q77.2741 713.1 77.2741 721.781 Q77.2741 730.498 71.6318 735.453 Q65.9533 740.372 56.0068 740.372 Q46.0243 740.372 40.3819 735.453 Q34.7396 730.498 34.7396 721.781 Z" fill="#000000" fill-rule="evenodd" fill-opacity="1" /><path clip-path="url(#clip340)" d="M 0 0 M51.7751 662.536 L76.2252 662.536 L76.2252 669.191 L51.9921 669.191 Q46.2413 669.191 43.3839 671.434 Q40.5266 673.676 40.5266 678.161 Q40.5266 683.55 43.9626 686.661 Q47.3987 689.771 53.3304 689.771 L76.2252 689.771 L76.2252 696.463 L35.7162 696.463 L35.7162 689.771 L42.0095 689.771 Q38.3565 687.384 36.548 684.165 Q34.7396 680.91 34.7396 676.678 Q34.7396 669.698 39.0799 666.117 Q43.3839 662.536 51.7751 662.536 Z" fill="#000000" fill-rule="evenodd" fill-opacity="1" /><path clip-path="url(#clip340)" d="M 0 0 M1003.08 10.8 L1037.22 10.8 L1037.22 16.9487 L1010.39 16.9487 L1010.39 32.9353 L1036.1 32.9353 L1036.1 39.084 L1010.39 39.084 L1010.39 58.6513 L1037.87 58.6513 L1037.87 64.8 L1003.08 64.8 L1003.08 10.8 Z" fill="#000000" fill-rule="evenodd" fill-opacity="1" /><path clip-path="url(#clip340)" d="M 0 0 M1078.53 40.3499 L1078.53 64.8 L1071.87 64.8 L1071.87 40.5669 Q1071.87 34.8161 1069.63 31.9587 Q1067.39 29.1014 1062.9 29.1014 Q1057.51 29.1014 1054.4 32.5374 Q1051.29 35.9735 1051.29 41.9052 L1051.29 64.8 L1044.6 64.8 L1044.6 24.291 L1051.29 24.291 L1051.29 30.5843 Q1053.68 26.9313 1056.9 25.1228 Q1060.15 23.3144 1064.39 23.3144 Q1071.37 23.3144 1074.95 27.6547 Q1078.53 31.9587 1078.53 40.3499 Z" fill="#000000" fill-rule="evenodd" fill-opacity="1" /><path clip-path="url(#clip340)" d="M 0 0 M1120.16 42.8817 L1120.16 46.1369 L1089.56 46.1369 Q1089.99 53.009 1093.68 56.6259 Q1097.41 60.2066 1104.03 60.2066 Q1107.86 60.2066 1111.44 59.2662 Q1115.06 58.3258 1118.6 56.445 L1118.6 62.7384 Q1115.02 64.2575 1111.26 65.0532 Q1107.5 65.8489 1103.63 65.8489 Q1093.94 65.8489 1088.26 60.2066 Q1082.61 54.5642 1082.61 44.9433 Q1082.61 34.9969 1087.97 29.1737 Q1093.36 23.3144 1102.47 23.3144 Q1110.65 23.3144 1115.38 28.595 Q1120.16 33.8395 1120.16 42.8817 M1113.5 40.9286 Q1113.43 35.4671 1110.43 32.2119 Q1107.46 28.9567 1102.54 28.9567 Q1096.97 28.9567 1093.61 32.1034 Q1090.28 35.2501 1089.78 40.9648 L1113.5 40.9286 Z" fill="#000000" fill-rule="evenodd" fill-opacity="1" /><path clip-path="url(#clip340)" d="M 0 0 M1150.61 30.512 Q1149.49 29.861 1148.15 29.5716 Q1146.85 29.2461 1145.26 29.2461 Q1139.62 29.2461 1136.58 32.9353 Q1133.58 36.5883 1133.58 43.4604 L1133.58 64.8 L1126.89 64.8 L1126.89 24.291 L1133.58 24.291 L1133.58 30.5843 Q1135.67 26.8951 1139.04 25.1228 Q1142.4 23.3144 1147.21 23.3144 Q1147.9 23.3144 1148.73 23.4229 Q1149.56 23.4952 1150.58 23.6761 L1150.61 30.512 Z" fill="#000000" fill-rule="evenodd" fill-opacity="1" /><path clip-path="url(#clip340)" d="M 0 0 M1182.95 44.0753 Q1182.95 36.8415 1179.95 32.863 Q1176.98 28.8844 1171.59 28.8844 Q1166.24 28.8844 1163.24 32.863 Q1160.27 36.8415 1160.27 44.0753 Q1160.27 51.2729 1163.24 55.2514 Q1166.24 59.23 1171.59 59.23 Q1176.98 59.23 1179.95 55.2514 Q1182.95 51.2729 1182.95 44.0753 M1189.6 59.7725 Q1189.6 70.1168 1185.01 75.1443 Q1180.42 80.2079 1170.94 80.2079 Q1167.43 80.2079 1164.32 79.6654 Q1161.21 79.159 1158.28 78.0739 L1158.28 71.5997 Q1161.21 73.1912 1164.07 73.9507 Q1166.92 74.7102 1169.89 74.7102 Q1176.44 74.7102 1179.69 71.2742 Q1182.95 67.8743 1182.95 60.9661 L1182.95 57.6747 Q1180.89 61.2555 1177.67 63.0277 Q1174.45 64.8 1169.96 64.8 Q1162.51 64.8 1157.95 59.1215 Q1153.4 53.443 1153.4 44.0753 Q1153.4 34.6714 1157.95 28.9929 Q1162.51 23.3144 1169.96 23.3144 Q1174.45 23.3144 1177.67 25.0867 Q1180.89 26.8589 1182.95 30.4397 L1182.95 24.291 L1189.6 24.291 L1189.6 59.7725 Z" fill="#000000" fill-rule="evenodd" fill-opacity="1" /><path clip-path="url(#clip340)" d="M 0 0 M1213.44 68.5616 Q1210.62 75.7953 1207.94 78.0016 Q1205.26 80.2079 1200.78 80.2079 L1195.46 80.2079 L1195.46 74.6379 L1199.37 74.6379 Q1202.12 74.6379 1203.64 73.3358 Q1205.15 72.0338 1207 67.1871 L1208.19 64.149 L1191.81 24.291 L1198.86 24.291 L1211.52 55.9748 L1224.18 24.291 L1231.23 24.291 L1213.44 68.5616 Z" fill="#000000" fill-rule="evenodd" fill-opacity="1" /><path clip-path="url(#clip340)" d="M 0 0 M1285.23 30.512 Q1284.11 29.861 1282.77 29.5716 Q1281.47 29.2461 1279.88 29.2461 Q1274.24 29.2461 1271.2 32.9353 Q1268.2 36.5883 1268.2 43.4604 L1268.2 64.8 L1261.51 64.8 L1261.51 24.291 L1268.2 24.291 L1268.2 30.5843 Q1270.29 26.8951 1273.66 25.1228 Q1277.02 23.3144 1281.83 23.3144 Q1282.52 23.3144 1283.35 23.4229 Q1284.18 23.4952 1285.2 23.6761 L1285.23 30.512 Z" fill="#000000" fill-rule="evenodd" fill-opacity="1" /><path clip-path="url(#clip340)" d="M 0 0 M1325.24 42.8817 L1325.24 46.1369 L1294.64 46.1369 Q1295.07 53.009 1298.76 56.6259 Q1302.49 60.2066 1309.1 60.2066 Q1312.94 60.2066 1316.52 59.2662 Q1320.14 58.3258 1323.68 56.445 L1323.68 62.7384 Q1320.1 64.2575 1316.34 65.0532 Q1312.58 65.8489 1308.71 65.8489 Q1299.01 65.8489 1293.33 60.2066 Q1287.69 54.5642 1287.69 44.9433 Q1287.69 34.9969 1293.04 29.1737 Q1298.43 23.3144 1307.55 23.3144 Q1315.72 23.3144 1320.46 28.595 Q1325.24 33.8395 1325.24 42.8817 M1318.58 40.9286 Q1318.51 35.4671 1315.51 32.2119 Q1312.54 28.9567 1307.62 28.9567 Q1302.05 28.9567 1298.69 32.1034 Q1295.36 35.2501 1294.85 40.9648 L1318.58 40.9286 Z" fill="#000000" fill-rule="evenodd" fill-opacity="1" /><path clip-path="url(#clip340)" d="M 0 0 M1358.04 25.4845 L1358.04 31.7779 Q1355.22 30.3311 1352.18 29.6078 Q1349.14 28.8844 1345.89 28.8844 Q1340.93 28.8844 1338.44 30.4035 Q1335.98 31.9226 1335.98 34.9608 Q1335.98 37.2756 1337.75 38.6138 Q1339.52 39.9159 1344.87 41.1094 L1347.15 41.6158 Q1354.24 43.1349 1357.21 45.9199 Q1360.21 48.6687 1360.21 53.6238 Q1360.21 59.2662 1355.73 62.5575 Q1351.28 65.8489 1343.46 65.8489 Q1340.21 65.8489 1336.66 65.1979 Q1333.16 64.583 1329.25 63.3171 L1329.25 56.445 Q1332.94 58.362 1336.52 59.3385 Q1340.1 60.2789 1343.61 60.2789 Q1348.31 60.2789 1350.84 58.6875 Q1353.37 57.0599 1353.37 54.1302 Q1353.37 51.4175 1351.53 49.9708 Q1349.72 48.524 1343.54 47.1858 L1341.22 46.6433 Q1335.04 45.3412 1332.29 42.6647 Q1329.54 39.952 1329.54 35.2501 Q1329.54 29.5354 1333.59 26.4249 Q1337.64 23.3144 1345.09 23.3144 Q1348.78 23.3144 1352.04 23.8569 Q1355.29 24.3995 1358.04 25.4845 Z" fill="#000000" fill-rule="evenodd" fill-opacity="1" /><path clip-path="url(#clip340)" d="M 0 0 M1382.89 28.9567 Q1377.54 28.9567 1374.42 33.1523 Q1371.31 37.3117 1371.31 44.5816 Q1371.31 51.8516 1374.39 56.0472 Q1377.5 60.2066 1382.89 60.2066 Q1388.21 60.2066 1391.32 56.011 Q1394.43 51.8154 1394.43 44.5816 Q1394.43 37.3841 1391.32 33.1885 Q1388.21 28.9567 1382.89 28.9567 M1382.89 23.3144 Q1391.57 23.3144 1396.52 28.9567 Q1401.48 34.5991 1401.48 44.5816 Q1401.48 54.5281 1396.52 60.2066 Q1391.57 65.8489 1382.89 65.8489 Q1374.17 65.8489 1369.22 60.2066 Q1364.3 54.5281 1364.3 44.5816 Q1364.3 34.5991 1369.22 28.9567 Q1374.17 23.3144 1382.89 23.3144 Z" fill="#000000" fill-rule="evenodd" fill-opacity="1" /><path clip-path="url(#clip340)" d="M 0 0 M1408.46 8.52137 L1415.11 8.52137 L1415.11 64.8 L1408.46 64.8 L1408.46 8.52137 Z" fill="#000000" fill-rule="evenodd" fill-opacity="1" /><path clip-path="url(#clip340)" d="M 0 0 M1421.41 48.8134 L1421.41 24.291 L1428.06 24.291 L1428.06 48.5602 Q1428.06 54.3111 1430.31 57.2046 Q1432.55 60.0619 1437.03 60.0619 Q1442.42 60.0619 1445.53 56.6259 Q1448.68 53.1898 1448.68 47.2581 L1448.68 24.291 L1455.33 24.291 L1455.33 64.8 L1448.68 64.8 L1448.68 58.579 Q1446.26 62.2682 1443.04 64.0766 Q1439.85 65.8489 1435.62 65.8489 Q1428.64 65.8489 1425.02 61.5086 Q1421.41 57.1684 1421.41 48.8134 M1438.15 23.3144 L1438.15 23.3144 Z" fill="#000000" fill-rule="evenodd" fill-opacity="1" /><path clip-path="url(#clip340)" d="M 0 0 M1468.9 12.7893 L1468.9 24.291 L1482.61 24.291 L1482.61 29.4631 L1468.9 29.4631 L1468.9 51.4537 Q1468.9 56.4088 1470.24 57.8194 Q1471.61 59.23 1475.77 59.23 L1482.61 59.23 L1482.61 64.8 L1475.77 64.8 Q1468.07 64.8 1465.14 61.9427 Q1462.21 59.0492 1462.21 51.4537 L1462.21 29.4631 L1457.32 29.4631 L1457.32 24.291 L1462.21 24.291 L1462.21 12.7893 L1468.9 12.7893 Z" fill="#000000" fill-rule="evenodd" fill-opacity="1" /><path clip-path="url(#clip340)" d="M 0 0 M1489.59 24.291 L1496.24 24.291 L1496.24 64.8 L1489.59 64.8 L1489.59 24.291 M1489.59 8.52137 L1496.24 8.52137 L1496.24 16.9487 L1489.59 16.9487 L1489.59 8.52137 Z" fill="#000000" fill-rule="evenodd" fill-opacity="1" /><path clip-path="url(#clip340)" d="M 0 0 M1518.92 28.9567 Q1513.57 28.9567 1510.46 33.1523 Q1507.35 37.3117 1507.35 44.5816 Q1507.35 51.8516 1510.42 56.0472 Q1513.53 60.2066 1518.92 60.2066 Q1524.24 60.2066 1527.35 56.011 Q1530.46 51.8154 1530.46 44.5816 Q1530.46 37.3841 1527.35 33.1885 Q1524.24 28.9567 1518.92 28.9567 M1518.92 23.3144 Q1527.6 23.3144 1532.55 28.9567 Q1537.51 34.5991 1537.51 44.5816 Q1537.51 54.5281 1532.55 60.2066 Q1527.6 65.8489 1518.92 65.8489 Q1510.2 65.8489 1505.25 60.2066 Q1500.33 54.5281 1500.33 44.5816 Q1500.33 34.5991 1505.25 28.9567 Q1510.2 23.3144 1518.92 23.3144 Z" fill="#000000" fill-rule="evenodd" fill-opacity="1" /><path clip-path="url(#clip340)" d="M 0 0 M1578.16 40.3499 L1578.16 64.8 L1571.51 64.8 L1571.51 40.5669 Q1571.51 34.8161 1569.27 31.9587 Q1567.02 29.1014 1562.54 29.1014 Q1557.15 29.1014 1554.04 32.5374 Q1550.93 35.9735 1550.93 41.9052 L1550.93 64.8 L1544.24 64.8 L1544.24 24.291 L1550.93 24.291 L1550.93 30.5843 Q1553.32 26.9313 1556.53 25.1228 Q1559.79 23.3144 1564.02 23.3144 Q1571 23.3144 1574.58 27.6547 Q1578.16 31.9587 1578.16 40.3499 Z" fill="#000000" fill-rule="evenodd" fill-opacity="1" /><path clip-path="url(#clip340)" d="M 0 0 M1629.2 8.52137 L1629.2 14.0552 L1622.83 14.0552 Q1619.25 14.0552 1617.84 15.5019 Q1616.47 16.9487 1616.47 20.7102 L1616.47 24.291 L1627.43 24.291 L1627.43 29.4631 L1616.47 29.4631 L1616.47 64.8 L1609.78 64.8 L1609.78 29.4631 L1603.41 29.4631 L1603.41 24.291 L1609.78 24.291 L1609.78 21.4698 Q1609.78 14.7062 1612.92 11.6319 Q1616.07 8.52137 1622.9 8.52137 L1629.2 8.52137 Z" fill="#000000" fill-rule="evenodd" fill-opacity="1" /><path clip-path="url(#clip340)" d="M 0 0 M1651.88 28.9567 Q1646.52 28.9567 1643.41 33.1523 Q1640.3 37.3117 1640.3 44.5816 Q1640.3 51.8516 1643.38 56.0472 Q1646.49 60.2066 1651.88 60.2066 Q1657.19 60.2066 1660.3 56.011 Q1663.41 51.8154 1663.41 44.5816 Q1663.41 37.3841 1660.3 33.1885 Q1657.19 28.9567 1651.88 28.9567 M1651.88 23.3144 Q1660.56 23.3144 1665.51 28.9567 Q1670.47 34.5991 1670.47 44.5816 Q1670.47 54.5281 1665.51 60.2066 Q1660.56 65.8489 1651.88 65.8489 Q1643.16 65.8489 1638.2 60.2066 Q1633.28 54.5281 1633.28 44.5816 Q1633.28 34.5991 1638.2 28.9567 Q1643.16 23.3144 1651.88 23.3144 Z" fill="#000000" fill-rule="evenodd" fill-opacity="1" /><path clip-path="url(#clip340)" d="M 0 0 M1700.92 30.512 Q1699.8 29.861 1698.46 29.5716 Q1697.16 29.2461 1695.57 29.2461 Q1689.93 29.2461 1686.89 32.9353 Q1683.88 36.5883 1683.88 43.4604 L1683.88 64.8 L1677.19 64.8 L1677.19 24.291 L1683.88 24.291 L1683.88 30.5843 Q1685.98 26.8951 1689.35 25.1228 Q1692.71 23.3144 1697.52 23.3144 Q1698.21 23.3144 1699.04 23.4229 Q1699.87 23.4952 1700.88 23.6761 L1700.92 30.512 Z" fill="#000000" fill-rule="evenodd" fill-opacity="1" /><path clip-path="url(#clip340)" d="M 0 0 M1733.65 58.6513 L1745.59 58.6513 L1745.59 17.4551 L1732.6 20.0592 L1732.6 13.4042 L1745.52 10.8 L1752.82 10.8 L1752.82 58.6513 L1764.76 58.6513 L1764.76 64.8 L1733.65 64.8 L1733.65 58.6513 Z" fill="#000000" fill-rule="evenodd" fill-opacity="1" /><path clip-path="url(#clip340)" d="M 0 0 M1788.3 15.6104 Q1782.66 15.6104 1779.8 21.1804 Q1776.98 26.7143 1776.98 37.8543 Q1776.98 48.9581 1779.8 54.5281 Q1782.66 60.0619 1788.3 60.0619 Q1793.98 60.0619 1796.8 54.5281 Q1799.66 48.9581 1799.66 37.8543 Q1799.66 26.7143 1796.8 21.1804 Q1793.98 15.6104 1788.3 15.6104 M1788.3 9.82344 Q1797.38 9.82344 1802.16 17.021 Q1806.97 24.1825 1806.97 37.8543 Q1806.97 51.4899 1802.16 58.6875 Q1797.38 65.8489 1788.3 65.8489 Q1779.23 65.8489 1774.42 58.6875 Q1769.64 51.4899 1769.64 37.8543 Q1769.64 24.1825 1774.42 17.021 Q1779.23 9.82344 1788.3 9.82344 Z" fill="#000000" fill-rule="evenodd" fill-opacity="1" /><path clip-path="url(#clip340)" d="M 0 0 M1830.51 15.6104 Q1824.87 15.6104 1822.01 21.1804 Q1819.19 26.7143 1819.19 37.8543 Q1819.19 48.9581 1822.01 54.5281 Q1824.87 60.0619 1830.51 60.0619 Q1836.19 60.0619 1839.01 54.5281 Q1841.87 48.9581 1841.87 37.8543 Q1841.87 26.7143 1839.01 21.1804 Q1836.19 15.6104 1830.51 15.6104 M1830.51 9.82344 Q1839.59 9.82344 1844.37 17.021 Q1849.18 24.1825 1849.18 37.8543 Q1849.18 51.4899 1844.37 58.6875 Q1839.59 65.8489 1830.51 65.8489 Q1821.43 65.8489 1816.62 58.6875 Q1811.85 51.4899 1811.85 37.8543 Q1811.85 24.1825 1816.62 17.021 Q1821.43 9.82344 1830.51 9.82344 Z" fill="#000000" fill-rule="evenodd" fill-opacity="1" /><path clip-path="url(#clip340)" d="M 0 0 M1872.72 15.6104 Q1867.08 15.6104 1864.22 21.1804 Q1861.4 26.7143 1861.4 37.8543 Q1861.4 48.9581 1864.22 54.5281 Q1867.08 60.0619 1872.72 60.0619 Q1878.4 60.0619 1881.22 54.5281 Q1884.08 48.9581 1884.08 37.8543 Q1884.08 26.7143 1881.22 21.1804 Q1878.4 15.6104 1872.72 15.6104 M1872.72 9.82344 Q1881.8 9.82344 1886.57 17.021 Q1891.39 24.1825 1891.39 37.8543 Q1891.39 51.4899 1886.57 58.6875 Q1881.8 65.8489 1872.72 65.8489 Q1863.64 65.8489 1858.83 58.6875 Q1854.06 51.4899 1854.06 37.8543 Q1854.06 24.1825 1858.83 17.021 Q1863.64 9.82344 1872.72 9.82344 Z" fill="#000000" fill-rule="evenodd" fill-opacity="1" /><path clip-path="url(#clip340)" d="M 0 0 M1947.74 25.4845 L1947.74 31.7779 Q1944.92 30.3311 1941.88 29.6078 Q1938.84 28.8844 1935.58 28.8844 Q1930.63 28.8844 1928.13 30.4035 Q1925.67 31.9226 1925.67 34.9608 Q1925.67 37.2756 1927.45 38.6138 Q1929.22 39.9159 1934.57 41.1094 L1936.85 41.6158 Q1943.94 43.1349 1946.9 45.9199 Q1949.91 48.6687 1949.91 53.6238 Q1949.91 59.2662 1945.42 62.5575 Q1940.97 65.8489 1933.16 65.8489 Q1929.9 65.8489 1926.36 65.1979 Q1922.85 64.583 1918.95 63.3171 L1918.95 56.445 Q1922.64 58.362 1926.22 59.3385 Q1929.8 60.2789 1933.3 60.2789 Q1938.01 60.2789 1940.54 58.6875 Q1943.07 57.0599 1943.07 54.1302 Q1943.07 51.4175 1941.23 49.9708 Q1939.42 48.524 1933.23 47.1858 L1930.92 46.6433 Q1924.73 45.3412 1921.98 42.6647 Q1919.24 39.952 1919.24 35.2501 Q1919.24 29.5354 1923.29 26.4249 Q1927.34 23.3144 1934.79 23.3144 Q1938.48 23.3144 1941.73 23.8569 Q1944.99 24.3995 1947.74 25.4845 Z" fill="#000000" fill-rule="evenodd" fill-opacity="1" /><path clip-path="url(#clip340)" d="M 0 0 M1990.56 40.3499 L1990.56 64.8 L1983.9 64.8 L1983.9 40.5669 Q1983.9 34.8161 1981.66 31.9587 Q1979.42 29.1014 1974.94 29.1014 Q1969.55 29.1014 1966.44 32.5374 Q1963.32 35.9735 1963.32 41.9052 L1963.32 64.8 L1956.63 64.8 L1956.63 8.52137 L1963.32 8.52137 L1963.32 30.5843 Q1965.71 26.9313 1968.93 25.1228 Q1972.19 23.3144 1976.42 23.3144 Q1983.4 23.3144 1986.98 27.6547 Q1990.56 31.9587 1990.56 40.3499 Z" fill="#000000" fill-rule="evenodd" fill-opacity="1" /><path clip-path="url(#clip340)" d="M 0 0 M2013.24 28.9567 Q2007.88 28.9567 2004.77 33.1523 Q2001.66 37.3117 2001.66 44.5816 Q2001.66 51.8516 2004.74 56.0472 Q2007.85 60.2066 2013.24 60.2066 Q2018.55 60.2066 2021.67 56.011 Q2024.78 51.8154 2024.78 44.5816 Q2024.78 37.3841 2021.67 33.1885 Q2018.55 28.9567 2013.24 28.9567 M2013.24 23.3144 Q2021.92 23.3144 2026.87 28.9567 Q2031.83 34.5991 2031.83 44.5816 Q2031.83 54.5281 2026.87 60.2066 Q2021.92 65.8489 2013.24 65.8489 Q2004.52 65.8489 1999.57 60.2066 Q1994.65 54.5281 1994.65 44.5816 Q1994.65 34.5991 1999.57 28.9567 Q2004.52 23.3144 2013.24 23.3144 Z" fill="#000000" fill-rule="evenodd" fill-opacity="1" /><path clip-path="url(#clip340)" d="M 0 0 M2034.94 24.291 L2041.59 24.291 L2049.91 55.9025 L2058.2 24.291 L2066.04 24.291 L2074.36 55.9025 L2082.65 24.291 L2089.3 24.291 L2078.7 64.8 L2070.85 64.8 L2062.14 31.5971 L2053.39 64.8 L2045.54 64.8 L2034.94 24.291 Z" fill="#000000" fill-rule="evenodd" fill-opacity="1" /><path clip-path="url(#clip340)" d="M 0 0 M2130.93 42.8817 L2130.93 46.1369 L2100.33 46.1369 Q2100.77 53.009 2104.46 56.6259 Q2108.18 60.2066 2114.8 60.2066 Q2118.63 60.2066 2122.21 59.2662 Q2125.83 58.3258 2129.38 56.445 L2129.38 62.7384 Q2125.8 64.2575 2122.03 65.0532 Q2118.27 65.8489 2114.4 65.8489 Q2104.71 65.8489 2099.03 60.2066 Q2093.39 54.5642 2093.39 44.9433 Q2093.39 34.9969 2098.74 29.1737 Q2104.13 23.3144 2113.24 23.3144 Q2121.42 23.3144 2126.16 28.595 Q2130.93 33.8395 2130.93 42.8817 M2124.28 40.9286 Q2124.2 35.4671 2121.2 32.2119 Q2118.24 28.9567 2113.32 28.9567 Q2107.75 28.9567 2104.38 32.1034 Q2101.06 35.2501 2100.55 40.9648 L2124.28 40.9286 Z" fill="#000000" fill-rule="evenodd" fill-opacity="1" /><path clip-path="url(#clip340)" d="M 0 0 M2161.39 30.512 Q2160.26 29.861 2158.93 29.5716 Q2157.62 29.2461 2156.03 29.2461 Q2150.39 29.2461 2147.35 32.9353 Q2144.35 36.5883 2144.35 43.4604 L2144.35 64.8 L2137.66 64.8 L2137.66 24.291 L2144.35 24.291 L2144.35 30.5843 Q2146.45 26.8951 2149.81 25.1228 Q2153.17 23.3144 2157.99 23.3144 Q2158.67 23.3144 2159.5 23.4229 Q2160.34 23.4952 2161.35 23.6761 L2161.39 30.512 Z" fill="#000000" fill-rule="evenodd" fill-opacity="1" /><path clip-path="url(#clip340)" d="M 0 0 M2194.19 25.4845 L2194.19 31.7779 Q2191.37 30.3311 2188.33 29.6078 Q2185.29 28.8844 2182.04 28.8844 Q2177.08 28.8844 2174.59 30.4035 Q2172.13 31.9226 2172.13 34.9608 Q2172.13 37.2756 2173.9 38.6138 Q2175.67 39.9159 2181.02 41.1094 L2183.3 41.6158 Q2190.39 43.1349 2193.36 45.9199 Q2196.36 48.6687 2196.36 53.6238 Q2196.36 59.2662 2191.88 62.5575 Q2187.43 65.8489 2179.61 65.8489 Q2176.36 65.8489 2172.81 65.1979 Q2169.31 64.583 2165.4 63.3171 L2165.4 56.445 Q2169.09 58.362 2172.67 59.3385 Q2176.25 60.2789 2179.76 60.2789 Q2184.46 60.2789 2186.99 58.6875 Q2189.52 57.0599 2189.52 54.1302 Q2189.52 51.4175 2187.68 49.9708 Q2185.87 48.524 2179.69 47.1858 L2177.37 46.6433 Q2171.19 45.3412 2168.44 42.6647 Q2165.69 39.952 2165.69 35.2501 Q2165.69 29.5354 2169.74 26.4249 Q2173.79 23.3144 2181.24 23.3144 Q2184.93 23.3144 2188.19 23.8569 Q2191.44 24.3995 2194.19 25.4845 Z" fill="#000000" fill-rule="evenodd" fill-opacity="1" /><polyline clip-path="url(#clip342)" style="stroke:#009af9; stroke-width:7.5; stroke-opacity:1; fill:none" points="
  417.12,1120.32 971.107,1557.5 1390.18,1627.36 1635.33,1257.65 1809.26,1580.43 2363.24,1625.19 2782.32,693.432 
  "/>
<circle clip-path="url(#clip342)" cx="417.12" cy="1120.32" r="13" fill="#ff0000" fill-rule="evenodd" fill-opacity="1" stroke="#000000" stroke-opacity="1" stroke-width="2"/>
<circle clip-path="url(#clip342)" cx="971.107" cy="1557.5" r="13" fill="#ff0000" fill-rule="evenodd" fill-opacity="1" stroke="#000000" stroke-opacity="1" stroke-width="2"/>
<circle clip-path="url(#clip342)" cx="1390.18" cy="1627.36" r="13" fill="#ff0000" fill-rule="evenodd" fill-opacity="1" stroke="#000000" stroke-opacity="1" stroke-width="2"/>
<circle clip-path="url(#clip342)" cx="1635.33" cy="1257.65" r="13" fill="#ff0000" fill-rule="evenodd" fill-opacity="1" stroke="#000000" stroke-opacity="1" stroke-width="2"/>
<circle clip-path="url(#clip342)" cx="1809.26" cy="1580.43" r="13" fill="#ff0000" fill-rule="evenodd" fill-opacity="1" stroke="#000000" stroke-opacity="1" stroke-width="2"/>
<circle clip-path="url(#clip342)" cx="2363.24" cy="1625.19" r="13" fill="#ff0000" fill-rule="evenodd" fill-opacity="1" stroke="#000000" stroke-opacity="1" stroke-width="2"/>
<circle clip-path="url(#clip342)" cx="2782.32" cy="693.432" r="13" fill="#ff0000" fill-rule="evenodd" fill-opacity="1" stroke="#000000" stroke-opacity="1" stroke-width="2"/>
<path clip-path="url(#clip340)" d="
M1965.69 469.232 L2851.53 469.232 L2851.53 185.732 L1965.69 185.732  Z
  " fill="#ffffff" fill-rule="evenodd" fill-opacity="1"/>
<polyline clip-path="url(#clip340)" style="stroke:#000000; stroke-width:5; stroke-opacity:1; fill:none" points="
  1965.69,469.232 2851.53,469.232 2851.53,185.732 1965.69,185.732 1965.69,469.232 
  "/>
<path clip-path="url(#clip340)" d="M 0 0 M2122.16 257.136 L2122.16 279.456 L2132.27 279.456 Q2137.88 279.456 2140.94 276.552 Q2144.01 273.647 2144.01 268.276 Q2144.01 262.945 2140.94 260.041 Q2137.88 257.136 2132.27 257.136 L2122.16 257.136 M2114.13 250.532 L2132.27 250.532 Q2142.25 250.532 2147.35 255.067 Q2152.48 259.563 2152.48 268.276 Q2152.48 277.069 2147.35 281.565 Q2142.25 286.06 2132.27 286.06 L2122.16 286.06 L2122.16 309.932 L2114.13 309.932 L2114.13 250.532 Z" fill="#000000" fill-rule="evenodd" fill-opacity="1" /><path clip-path="url(#clip340)" d="M 0 0 M2184.55 272.215 Q2183.31 271.499 2181.84 271.181 Q2180.41 270.823 2178.66 270.823 Q2172.45 270.823 2169.11 274.881 Q2165.81 278.899 2165.81 286.458 L2165.81 309.932 L2158.45 309.932 L2158.45 265.372 L2165.81 265.372 L2165.81 272.295 Q2168.12 268.236 2171.82 266.287 Q2175.52 264.298 2180.81 264.298 Q2181.56 264.298 2182.48 264.417 Q2183.39 264.497 2184.51 264.696 L2184.55 272.215 Z" fill="#000000" fill-rule="evenodd" fill-opacity="1" /><path clip-path="url(#clip340)" d="M 0 0 M2192.23 265.372 L2199.55 265.372 L2199.55 309.932 L2192.23 309.932 L2192.23 265.372 M2192.23 248.025 L2199.55 248.025 L2199.55 257.295 L2192.23 257.295 L2192.23 248.025 Z" fill="#000000" fill-rule="evenodd" fill-opacity="1" /><path clip-path="url(#clip340)" d="M 0 0 M2241.92 273.926 Q2244.66 268.992 2248.48 266.645 Q2252.3 264.298 2257.47 264.298 Q2264.44 264.298 2268.22 269.191 Q2272 274.045 2272 283.037 L2272 309.932 L2264.64 309.932 L2264.64 283.275 Q2264.64 276.87 2262.37 273.767 Q2260.1 270.663 2255.45 270.663 Q2249.76 270.663 2246.45 274.443 Q2243.15 278.223 2243.15 284.748 L2243.15 309.932 L2235.79 309.932 L2235.79 283.275 Q2235.79 276.83 2233.52 273.767 Q2231.26 270.663 2226.52 270.663 Q2220.91 270.663 2217.61 274.483 Q2214.31 278.262 2214.31 284.748 L2214.31 309.932 L2206.95 309.932 L2206.95 265.372 L2214.31 265.372 L2214.31 272.295 Q2216.81 268.197 2220.31 266.247 Q2223.82 264.298 2228.63 264.298 Q2233.48 264.298 2236.87 266.764 Q2240.29 269.231 2241.92 273.926 Z" fill="#000000" fill-rule="evenodd" fill-opacity="1" /><path clip-path="url(#clip340)" d="M 0 0 M2299.93 287.533 Q2291.05 287.533 2287.63 289.562 Q2284.21 291.591 2284.21 296.484 Q2284.21 300.383 2286.76 302.691 Q2289.34 304.959 2293.76 304.959 Q2299.85 304.959 2303.51 300.662 Q2307.21 296.325 2307.21 289.164 L2307.21 287.533 L2299.93 287.533 M2314.53 284.509 L2314.53 309.932 L2307.21 309.932 L2307.21 303.168 Q2304.7 307.226 2300.96 309.176 Q2297.22 311.086 2291.81 311.086 Q2284.97 311.086 2280.91 307.266 Q2276.89 303.407 2276.89 296.962 Q2276.89 289.442 2281.9 285.623 Q2286.96 281.803 2296.94 281.803 L2307.21 281.803 L2307.21 281.087 Q2307.21 276.034 2303.86 273.289 Q2300.56 270.504 2294.55 270.504 Q2290.74 270.504 2287.11 271.419 Q2283.49 272.334 2280.15 274.165 L2280.15 267.401 Q2284.17 265.849 2287.95 265.093 Q2291.73 264.298 2295.31 264.298 Q2304.98 264.298 2309.75 269.311 Q2314.53 274.324 2314.53 284.509 Z" fill="#000000" fill-rule="evenodd" fill-opacity="1" /><path clip-path="url(#clip340)" d="M 0 0 M2348.03 272.215 Q2346.79 271.499 2345.32 271.181 Q2343.89 270.823 2342.14 270.823 Q2335.93 270.823 2332.59 274.881 Q2329.29 278.899 2329.29 286.458 L2329.29 309.932 L2321.93 309.932 L2321.93 265.372 L2329.29 265.372 L2329.29 272.295 Q2331.59 268.236 2335.29 266.287 Q2339 264.298 2344.29 264.298 Q2345.04 264.298 2345.96 264.417 Q2346.87 264.497 2347.99 264.696 L2348.03 272.215 Z" fill="#000000" fill-rule="evenodd" fill-opacity="1" /><path clip-path="url(#clip340)" d="M 0 0 M2374.25 314.07 Q2371.14 322.027 2368.2 324.454 Q2365.25 326.881 2360.32 326.881 L2354.47 326.881 L2354.47 320.754 L2358.77 320.754 Q2361.79 320.754 2363.46 319.321 Q2365.13 317.889 2367.16 312.558 L2368.48 309.216 L2350.45 265.372 L2358.21 265.372 L2372.14 300.224 L2386.06 265.372 L2393.82 265.372 L2374.25 314.07 Z" fill="#000000" fill-rule="evenodd" fill-opacity="1" /><path clip-path="url(#clip340)" d="M 0 0 M2435.75 257.136 L2435.75 279.456 L2445.86 279.456 Q2451.47 279.456 2454.53 276.552 Q2457.6 273.647 2457.6 268.276 Q2457.6 262.945 2454.53 260.041 Q2451.47 257.136 2445.86 257.136 L2435.75 257.136 M2427.72 250.532 L2445.86 250.532 Q2455.85 250.532 2460.94 255.067 Q2466.07 259.563 2466.07 268.276 Q2466.07 277.069 2460.94 281.565 Q2455.85 286.06 2445.86 286.06 L2435.75 286.06 L2435.75 309.932 L2427.72 309.932 L2427.72 250.532 Z" fill="#000000" fill-rule="evenodd" fill-opacity="1" /><path clip-path="url(#clip340)" d="M 0 0 M2490.34 287.533 Q2481.47 287.533 2478.05 289.562 Q2474.62 291.591 2474.62 296.484 Q2474.62 300.383 2477.17 302.691 Q2479.76 304.959 2484.17 304.959 Q2490.26 304.959 2493.92 300.662 Q2497.62 296.325 2497.62 289.164 L2497.62 287.533 L2490.34 287.533 M2504.94 284.509 L2504.94 309.932 L2497.62 309.932 L2497.62 303.168 Q2495.11 307.226 2491.37 309.176 Q2487.63 311.086 2482.22 311.086 Q2475.38 311.086 2471.32 307.266 Q2467.3 303.407 2467.3 296.962 Q2467.3 289.442 2472.32 285.623 Q2477.37 281.803 2487.36 281.803 L2497.62 281.803 L2497.62 281.087 Q2497.62 276.034 2494.28 273.289 Q2490.98 270.504 2484.97 270.504 Q2481.15 270.504 2477.53 271.419 Q2473.91 272.334 2470.57 274.165 L2470.57 267.401 Q2474.58 265.849 2478.36 265.093 Q2482.14 264.298 2485.72 264.298 Q2495.39 264.298 2500.17 269.311 Q2504.94 274.324 2504.94 284.509 Z" fill="#000000" fill-rule="evenodd" fill-opacity="1" /><path clip-path="url(#clip340)" d="M 0 0 M2538.44 272.215 Q2537.21 271.499 2535.74 271.181 Q2534.3 270.823 2532.55 270.823 Q2526.35 270.823 2523 274.881 Q2519.7 278.899 2519.7 286.458 L2519.7 309.932 L2512.34 309.932 L2512.34 265.372 L2519.7 265.372 L2519.7 272.295 Q2522.01 268.236 2525.71 266.287 Q2529.41 264.298 2534.7 264.298 Q2535.46 264.298 2536.37 264.417 Q2537.29 264.497 2538.4 264.696 L2538.44 272.215 Z" fill="#000000" fill-rule="evenodd" fill-opacity="1" /><path clip-path="url(#clip340)" d="M 0 0 M2553.36 252.72 L2553.36 265.372 L2568.44 265.372 L2568.44 271.061 L2553.36 271.061 L2553.36 295.251 Q2553.36 300.702 2554.83 302.253 Q2556.34 303.805 2560.92 303.805 L2568.44 303.805 L2568.44 309.932 L2560.92 309.932 Q2552.45 309.932 2549.22 306.789 Q2546 303.606 2546 295.251 L2546 271.061 L2540.63 271.061 L2540.63 265.372 L2546 265.372 L2546 252.72 L2553.36 252.72 Z" fill="#000000" fill-rule="evenodd" fill-opacity="1" /><path clip-path="url(#clip340)" d="M 0 0 M2576.12 265.372 L2583.44 265.372 L2583.44 309.932 L2576.12 309.932 L2576.12 265.372 M2576.12 248.025 L2583.44 248.025 L2583.44 257.295 L2576.12 257.295 L2576.12 248.025 Z" fill="#000000" fill-rule="evenodd" fill-opacity="1" /><path clip-path="url(#clip340)" d="M 0 0 M2623.18 267.083 L2623.18 273.926 Q2620.08 272.215 2616.94 271.38 Q2613.83 270.504 2610.65 270.504 Q2603.53 270.504 2599.59 275.04 Q2595.65 279.536 2595.65 287.692 Q2595.65 295.848 2599.59 300.383 Q2603.53 304.879 2610.65 304.879 Q2613.83 304.879 2616.94 304.044 Q2620.08 303.168 2623.18 301.458 L2623.18 308.221 Q2620.12 309.653 2616.82 310.37 Q2613.56 311.086 2609.86 311.086 Q2599.79 311.086 2593.86 304.76 Q2587.93 298.434 2587.93 287.692 Q2587.93 276.79 2593.9 270.544 Q2599.91 264.298 2610.33 264.298 Q2613.72 264.298 2616.94 265.014 Q2620.16 265.69 2623.18 267.083 Z" fill="#000000" fill-rule="evenodd" fill-opacity="1" /><path clip-path="url(#clip340)" d="M 0 0 M2630.86 248.025 L2638.18 248.025 L2638.18 309.932 L2630.86 309.932 L2630.86 248.025 Z" fill="#000000" fill-rule="evenodd" fill-opacity="1" /><path clip-path="url(#clip340)" d="M 0 0 M2683.98 285.822 L2683.98 289.402 L2650.32 289.402 Q2650.8 296.962 2654.85 300.94 Q2658.95 304.879 2666.23 304.879 Q2670.45 304.879 2674.39 303.845 Q2678.37 302.81 2682.27 300.741 L2682.27 307.664 Q2678.33 309.335 2674.19 310.21 Q2670.05 311.086 2665.79 311.086 Q2655.13 311.086 2648.89 304.879 Q2642.68 298.673 2642.68 288.09 Q2642.68 277.148 2648.57 270.743 Q2654.5 264.298 2664.52 264.298 Q2673.51 264.298 2678.72 270.106 Q2683.98 275.875 2683.98 285.822 M2676.66 283.673 Q2676.58 277.666 2673.27 274.085 Q2670.01 270.504 2664.6 270.504 Q2658.47 270.504 2654.77 273.966 Q2651.11 277.427 2650.56 283.713 L2676.66 283.673 Z" fill="#000000" fill-rule="evenodd" fill-opacity="1" /><path clip-path="url(#clip340)" d="M 0 0 M2693.53 299.826 L2701.92 299.826 L2701.92 309.932 L2693.53 309.932 L2693.53 299.826 M2693.53 267.799 L2701.92 267.799 L2701.92 277.904 L2693.53 277.904 L2693.53 267.799 Z" fill="#000000" fill-rule="evenodd" fill-opacity="1" /><polyline clip-path="url(#clip340)" style="stroke:#009af9; stroke-width:6.25; stroke-opacity:1; fill:none" points="
  1995.49,374.732 2174.32,374.732 
  "/>
<circle clip-path="url(#clip340)" cx="2084.91" cy="374.732" r="35" fill="#ff0000" fill-rule="evenodd" fill-opacity="1" stroke="#000000" stroke-opacity="1" stroke-width="5.33333"/>
<path clip-path="url(#clip340)" d="M 0 0 M2211.43 353.736 L2211.43 374.027 L2220.62 374.027 Q2225.72 374.027 2228.5 371.386 Q2231.29 368.746 2231.29 363.863 Q2231.29 359.017 2228.5 356.376 Q2225.72 353.736 2220.62 353.736 L2211.43 353.736 M2204.13 347.732 L2220.62 347.732 Q2229.7 347.732 2234.33 351.855 Q2238.99 355.942 2238.99 363.863 Q2238.99 371.856 2234.33 375.944 Q2229.7 380.031 2220.62 380.031 L2211.43 380.031 L2211.43 401.732 L2204.13 401.732 L2204.13 347.732 Z" fill="#000000" fill-rule="evenodd" fill-opacity="1" /><path clip-path="url(#clip340)" d="M 0 0 M2279.65 377.282 L2279.65 401.732 L2272.99 401.732 L2272.99 377.499 Q2272.99 371.748 2270.75 368.891 Q2268.51 366.033 2264.02 366.033 Q2258.63 366.033 2255.52 369.469 Q2252.41 372.905 2252.41 378.837 L2252.41 401.732 L2245.72 401.732 L2245.72 345.453 L2252.41 345.453 L2252.41 367.516 Q2254.8 363.863 2258.02 362.055 Q2261.27 360.246 2265.5 360.246 Q2272.49 360.246 2276.07 364.587 Q2279.65 368.891 2279.65 377.282 Z" fill="#000000" fill-rule="evenodd" fill-opacity="1" /><path clip-path="url(#clip340)" d="M 0 0 M2302.32 365.889 Q2296.97 365.889 2293.86 370.084 Q2290.75 374.244 2290.75 381.514 Q2290.75 388.783 2293.83 392.979 Q2296.94 397.138 2302.32 397.138 Q2307.64 397.138 2310.75 392.943 Q2313.86 388.747 2313.86 381.514 Q2313.86 374.316 2310.75 370.12 Q2307.64 365.889 2302.32 365.889 M2302.32 360.246 Q2311.01 360.246 2315.96 365.889 Q2320.92 371.531 2320.92 381.514 Q2320.92 391.46 2315.96 397.138 Q2311.01 402.781 2302.32 402.781 Q2293.61 402.781 2288.65 397.138 Q2283.73 391.46 2283.73 381.514 Q2283.73 371.531 2288.65 365.889 Q2293.61 360.246 2302.32 360.246 Z" fill="#000000" fill-rule="evenodd" fill-opacity="1" /><path clip-path="url(#clip340)" d="M 0 0 M2334.48 349.721 L2334.48 361.223 L2348.19 361.223 L2348.19 366.395 L2334.48 366.395 L2334.48 388.386 Q2334.48 393.341 2335.82 394.751 Q2337.19 396.162 2341.35 396.162 L2348.19 396.162 L2348.19 401.732 L2341.35 401.732 Q2333.65 401.732 2330.72 398.875 Q2327.79 395.981 2327.79 388.386 L2327.79 366.395 L2322.9 366.395 L2322.9 361.223 L2327.79 361.223 L2327.79 349.721 L2334.48 349.721 Z" fill="#000000" fill-rule="evenodd" fill-opacity="1" /><path clip-path="url(#clip340)" d="M 0 0 M2370.86 365.889 Q2365.51 365.889 2362.4 370.084 Q2359.29 374.244 2359.29 381.514 Q2359.29 388.783 2362.36 392.979 Q2365.48 397.138 2370.86 397.138 Q2376.18 397.138 2379.29 392.943 Q2382.4 388.747 2382.4 381.514 Q2382.4 374.316 2379.29 370.12 Q2376.18 365.889 2370.86 365.889 M2370.86 360.246 Q2379.55 360.246 2384.5 365.889 Q2389.46 371.531 2389.46 381.514 Q2389.46 391.46 2384.5 397.138 Q2379.55 402.781 2370.86 402.781 Q2362.15 402.781 2357.19 397.138 Q2352.27 391.46 2352.27 381.514 Q2352.27 371.531 2357.19 365.889 Q2362.15 360.246 2370.86 360.246 Z" fill="#000000" fill-rule="evenodd" fill-opacity="1" /><path clip-path="url(#clip340)" d="M 0 0 M2430.11 377.282 L2430.11 401.732 L2423.45 401.732 L2423.45 377.499 Q2423.45 371.748 2421.21 368.891 Q2418.97 366.033 2414.48 366.033 Q2409.09 366.033 2405.98 369.469 Q2402.87 372.905 2402.87 378.837 L2402.87 401.732 L2396.18 401.732 L2396.18 361.223 L2402.87 361.223 L2402.87 367.516 Q2405.26 363.863 2408.48 362.055 Q2411.74 360.246 2415.97 360.246 Q2422.95 360.246 2426.53 364.587 Q2430.11 368.891 2430.11 377.282 Z" fill="#000000" fill-rule="evenodd" fill-opacity="1" /></svg>
