<?xml version="1.0" encoding="utf-8"?>
<svg xmlns="http://www.w3.org/2000/svg" xmlns:xlink="http://www.w3.org/1999/xlink" width="750" height="500" viewBox="0 0 3000 2000">
<defs>
  <clipPath id="clip980">
    <rect x="0" y="0" width="3000" height="2000"/>
  </clipPath>
</defs>
<path clip-path="url(#clip980)" d="
M0 2000 L3000 2000 L3000 0 L0 0  Z
  " fill="#ffffff" fill-rule="evenodd" fill-opacity="1"/>
<defs>
  <clipPath id="clip981">
    <rect x="600" y="0" width="2101" height="2000"/>
  </clipPath>
</defs>
<path clip-path="url(#clip980)" d="
M300.104 1769.02 L2940.94 1769.02 L2940.94 131.136 L300.104 131.136  Z
  " fill="#ffffff" fill-rule="evenodd" fill-opacity="1"/>
<defs>
  <clipPath id="clip982">
    <rect x="300" y="131" width="2642" height="1639"/>
  </clipPath>
</defs>
<polyline clip-path="url(#clip982)" style="stroke:#000000; stroke-width:10; stroke-opacity:0.3; fill:none" points="
  456.268,1769.02 456.268,131.136 
  "/>
<polyline clip-path="url(#clip982)" style="stroke:#000000; stroke-width:10; stroke-opacity:0.3; fill:none" points="
  1826.81,1769.02 1826.81,131.136 
  "/>
<polyline clip-path="url(#clip980)" style="stroke:#000000; stroke-width:5; stroke-opacity:1; fill:none" points="
  300.104,1769.02 2940.94,1769.02 
  "/>
<polyline clip-path="url(#clip980)" style="stroke:#000000; stroke-width:5; stroke-opacity:1; fill:none" points="
  300.104,131.136 2940.94,131.136 
  "/>
<polyline clip-path="url(#clip980)" style="stroke:#000000; stroke-width:5; stroke-opacity:1; fill:none" points="
  456.268,1769.02 456.268,1749.37 
  "/>
<polyline clip-path="url(#clip980)" style="stroke:#000000; stroke-width:5; stroke-opacity:1; fill:none" points="
  1826.81,1769.02 1826.81,1749.37 
  "/>
<path clip-path="url(#clip980)" d="M 0 0 M415.807 1866.86 L425.356 1866.86 L425.356 1833.9 L414.968 1835.99 L414.968 1830.66 L425.298 1828.58 L431.143 1828.58 L431.143 1866.86 L440.691 1866.86 L440.691 1871.78 L415.807 1871.78 L415.807 1866.86 Z" fill="#000000" fill-rule="evenodd" fill-opacity="1" /><path clip-path="url(#clip980)" d="M 0 0 M459.528 1832.43 Q455.014 1832.43 452.728 1836.88 Q450.471 1841.31 450.471 1850.22 Q450.471 1859.11 452.728 1863.56 Q455.014 1867.99 459.528 1867.99 Q464.071 1867.99 466.328 1863.56 Q468.614 1859.11 468.614 1850.22 Q468.614 1841.31 466.328 1836.88 Q464.071 1832.43 459.528 1832.43 M459.528 1827.8 Q466.791 1827.8 470.61 1833.56 Q474.458 1839.29 474.458 1850.22 Q474.458 1861.13 470.61 1866.89 Q466.791 1872.62 459.528 1872.62 Q452.265 1872.62 448.417 1866.89 Q444.598 1861.13 444.598 1850.22 Q444.598 1839.29 448.417 1833.56 Q452.265 1827.8 459.528 1827.8 Z" fill="#000000" fill-rule="evenodd" fill-opacity="1" /><path clip-path="url(#clip980)" d="M 0 0 M490.328 1818.59 Q493.736 1819.32 495.641 1821.62 Q497.569 1823.93 497.569 1827.31 Q497.569 1832.51 493.995 1835.35 Q490.422 1838.2 483.839 1838.2 Q481.629 1838.2 479.278 1837.75 Q476.951 1837.33 474.458 1836.46 L474.458 1831.87 Q476.433 1833.03 478.784 1833.61 Q481.135 1834.2 483.698 1834.2 Q488.165 1834.2 490.492 1832.44 Q492.843 1830.68 492.843 1827.31 Q492.843 1824.21 490.657 1822.47 Q488.494 1820.71 484.615 1820.71 L480.524 1820.71 L480.524 1816.8 L484.803 1816.8 Q488.306 1816.8 490.163 1815.42 Q492.02 1814.01 492.02 1811.37 Q492.02 1808.67 490.092 1807.24 Q488.188 1805.78 484.615 1805.78 Q482.663 1805.78 480.43 1806.2 Q478.197 1806.63 475.516 1807.52 L475.516 1803.29 Q478.22 1802.53 480.571 1802.16 Q482.945 1801.78 485.038 1801.78 Q490.445 1801.78 493.595 1804.25 Q496.746 1806.7 496.746 1810.88 Q496.746 1813.8 495.076 1815.82 Q493.407 1817.82 490.328 1818.59 Z" fill="#000000" fill-rule="evenodd" fill-opacity="1" /><path clip-path="url(#clip980)" d="M 0 0 M1785.12 1866.86 L1794.66 1866.86 L1794.66 1833.9 L1784.28 1835.99 L1784.28 1830.66 L1794.61 1828.58 L1800.45 1828.58 L1800.45 1866.86 L1810 1866.86 L1810 1871.78 L1785.12 1871.78 L1785.12 1866.86 Z" fill="#000000" fill-rule="evenodd" fill-opacity="1" /><path clip-path="url(#clip980)" d="M 0 0 M1828.84 1832.43 Q1824.32 1832.43 1822.04 1836.88 Q1819.78 1841.31 1819.78 1850.22 Q1819.78 1859.11 1822.04 1863.56 Q1824.32 1867.99 1828.84 1867.99 Q1833.38 1867.99 1835.64 1863.56 Q1837.92 1859.11 1837.92 1850.22 Q1837.92 1841.31 1835.64 1836.88 Q1833.38 1832.43 1828.84 1832.43 M1828.84 1827.8 Q1836.1 1827.8 1839.92 1833.56 Q1843.77 1839.29 1843.77 1850.22 Q1843.77 1861.13 1839.92 1866.89 Q1836.1 1872.62 1828.84 1872.62 Q1821.57 1872.62 1817.73 1866.89 Q1813.91 1861.13 1813.91 1850.22 Q1813.91 1839.29 1817.73 1833.56 Q1821.57 1827.8 1828.84 1827.8 Z" fill="#000000" fill-rule="evenodd" fill-opacity="1" /><path clip-path="url(#clip980)" d="M 0 0 M1859.61 1806.55 L1847.62 1825.29 L1859.61 1825.29 L1859.61 1806.55 M1858.37 1802.42 L1864.34 1802.42 L1864.34 1825.29 L1869.35 1825.29 L1869.35 1829.24 L1864.34 1829.24 L1864.34 1837.52 L1859.61 1837.52 L1859.61 1829.24 L1843.77 1829.24 L1843.77 1824.66 L1858.37 1802.42 Z" fill="#000000" fill-rule="evenodd" fill-opacity="1" /><path clip-path="url(#clip980)" d="M 0 0 M1265.18 1918.66 L1265.18 1938.95 L1274.37 1938.95 Q1279.47 1938.95 1282.26 1936.31 Q1285.04 1933.67 1285.04 1928.78 Q1285.04 1923.94 1282.26 1921.3 Q1279.47 1918.66 1274.37 1918.66 L1265.18 1918.66 M1257.88 1912.65 L1274.37 1912.65 Q1283.45 1912.65 1288.08 1916.78 Q1292.74 1920.86 1292.74 1928.78 Q1292.74 1936.78 1288.08 1940.86 Q1283.45 1944.95 1274.37 1944.95 L1265.18 1944.95 L1265.18 1966.65 L1257.88 1966.65 L1257.88 1912.65 Z" fill="#000000" fill-rule="evenodd" fill-opacity="1" /><path clip-path="url(#clip980)" d="M 0 0 M1321.9 1932.36 Q1320.78 1931.71 1319.44 1931.42 Q1318.14 1931.1 1316.54 1931.1 Q1310.9 1931.1 1307.86 1934.79 Q1304.86 1938.44 1304.86 1945.31 L1304.86 1966.65 L1298.17 1966.65 L1298.17 1926.14 L1304.86 1926.14 L1304.86 1932.44 Q1306.96 1928.75 1310.32 1926.97 Q1313.69 1925.17 1318.5 1925.17 Q1319.18 1925.17 1320.02 1925.27 Q1320.85 1925.35 1321.86 1925.53 L1321.9 1932.36 Z" fill="#000000" fill-rule="evenodd" fill-opacity="1" /><path clip-path="url(#clip980)" d="M 0 0 M1328.88 1926.14 L1335.53 1926.14 L1335.53 1966.65 L1328.88 1966.65 L1328.88 1926.14 M1328.88 1910.37 L1335.53 1910.37 L1335.53 1918.8 L1328.88 1918.8 L1328.88 1910.37 Z" fill="#000000" fill-rule="evenodd" fill-opacity="1" /><path clip-path="url(#clip980)" d="M 0 0 M1374.05 1933.92 Q1376.55 1929.43 1380.02 1927.3 Q1383.49 1925.17 1388.19 1925.17 Q1394.52 1925.17 1397.96 1929.61 Q1401.4 1934.03 1401.4 1942.2 L1401.4 1966.65 L1394.7 1966.65 L1394.7 1942.42 Q1394.7 1936.6 1392.64 1933.77 Q1390.58 1930.95 1386.35 1930.95 Q1381.18 1930.95 1378.18 1934.39 Q1375.17 1937.83 1375.17 1943.76 L1375.17 1966.65 L1368.48 1966.65 L1368.48 1942.42 Q1368.48 1936.56 1366.42 1933.77 Q1364.36 1930.95 1360.05 1930.95 Q1354.96 1930.95 1351.95 1934.43 Q1348.95 1937.86 1348.95 1943.76 L1348.95 1966.65 L1342.26 1966.65 L1342.26 1926.14 L1348.95 1926.14 L1348.95 1932.44 Q1351.23 1928.71 1354.41 1926.94 Q1357.6 1925.17 1361.97 1925.17 Q1366.38 1925.17 1369.46 1927.41 Q1372.57 1929.65 1374.05 1933.92 Z" fill="#000000" fill-rule="evenodd" fill-opacity="1" /><path clip-path="url(#clip980)" d="M 0 0 M1426.79 1946.29 Q1418.72 1946.29 1415.61 1948.13 Q1412.5 1949.98 1412.5 1954.43 Q1412.5 1957.97 1414.81 1960.07 Q1417.17 1962.13 1421.18 1962.13 Q1426.71 1962.13 1430.04 1958.22 Q1433.41 1954.28 1433.41 1947.77 L1433.41 1946.29 L1426.79 1946.29 M1440.06 1943.54 L1440.06 1966.65 L1433.41 1966.65 L1433.41 1960.5 Q1431.13 1964.19 1427.73 1965.96 Q1424.33 1967.7 1419.41 1967.7 Q1413.19 1967.7 1409.5 1964.23 Q1405.84 1960.72 1405.84 1954.86 Q1405.84 1948.02 1410.4 1944.55 Q1415 1941.08 1424.07 1941.08 L1433.41 1941.08 L1433.41 1940.43 Q1433.41 1935.84 1430.37 1933.34 Q1427.37 1930.81 1421.9 1930.81 Q1418.43 1930.81 1415.14 1931.64 Q1411.85 1932.47 1408.81 1934.14 L1408.81 1927.99 Q1412.46 1926.58 1415.9 1925.89 Q1419.34 1925.17 1422.59 1925.17 Q1431.38 1925.17 1435.72 1929.72 Q1440.06 1934.28 1440.06 1943.54 Z" fill="#000000" fill-rule="evenodd" fill-opacity="1" /><path clip-path="url(#clip980)" d="M 0 0 M1470.51 1932.36 Q1469.39 1931.71 1468.05 1931.42 Q1466.75 1931.1 1465.16 1931.1 Q1459.52 1931.1 1456.48 1934.79 Q1453.48 1938.44 1453.48 1945.31 L1453.48 1966.65 L1446.79 1966.65 L1446.79 1926.14 L1453.48 1926.14 L1453.48 1932.44 Q1455.58 1928.75 1458.94 1926.97 Q1462.3 1925.17 1467.11 1925.17 Q1467.8 1925.17 1468.63 1925.27 Q1469.47 1925.35 1470.48 1925.53 L1470.51 1932.36 Z" fill="#000000" fill-rule="evenodd" fill-opacity="1" /><path clip-path="url(#clip980)" d="M 0 0 M1494.35 1970.41 Q1491.53 1977.65 1488.85 1979.85 Q1486.18 1982.06 1481.69 1982.06 L1476.37 1982.06 L1476.37 1976.49 L1480.28 1976.49 Q1483.03 1976.49 1484.55 1975.19 Q1486.07 1973.89 1487.91 1969.04 L1489.11 1966 L1472.72 1926.14 L1479.77 1926.14 L1492.43 1957.83 L1505.09 1926.14 L1512.14 1926.14 L1494.35 1970.41 Z" fill="#000000" fill-rule="evenodd" fill-opacity="1" /><path clip-path="url(#clip980)" d="M 0 0 M1542.96 1912.65 L1577.1 1912.65 L1577.1 1918.8 L1550.27 1918.8 L1550.27 1934.79 L1575.98 1934.79 L1575.98 1940.94 L1550.27 1940.94 L1550.27 1960.5 L1577.75 1960.5 L1577.75 1966.65 L1542.96 1966.65 L1542.96 1912.65 Z" fill="#000000" fill-rule="evenodd" fill-opacity="1" /><path clip-path="url(#clip980)" d="M 0 0 M1618.41 1942.2 L1618.41 1966.65 L1611.75 1966.65 L1611.75 1942.42 Q1611.75 1936.67 1609.51 1933.81 Q1607.27 1930.95 1602.78 1930.95 Q1597.39 1930.95 1594.28 1934.39 Q1591.17 1937.83 1591.17 1943.76 L1591.17 1966.65 L1584.48 1966.65 L1584.48 1926.14 L1591.17 1926.14 L1591.17 1932.44 Q1593.56 1928.78 1596.78 1926.97 Q1600.03 1925.17 1604.27 1925.17 Q1611.25 1925.17 1614.83 1929.51 Q1618.41 1933.81 1618.41 1942.2 Z" fill="#000000" fill-rule="evenodd" fill-opacity="1" /><path clip-path="url(#clip980)" d="M 0 0 M1660.04 1944.73 L1660.04 1947.99 L1629.44 1947.99 Q1629.87 1954.86 1633.56 1958.48 Q1637.29 1962.06 1643.91 1962.06 Q1647.74 1962.06 1651.32 1961.12 Q1654.94 1960.18 1658.48 1958.3 L1658.48 1964.59 Q1654.9 1966.11 1651.14 1966.9 Q1647.38 1967.7 1643.51 1967.7 Q1633.82 1967.7 1628.14 1962.06 Q1622.5 1956.42 1622.5 1946.8 Q1622.5 1936.85 1627.85 1931.03 Q1633.24 1925.17 1642.35 1925.17 Q1650.53 1925.17 1655.26 1930.45 Q1660.04 1935.69 1660.04 1944.73 M1653.38 1942.78 Q1653.31 1937.32 1650.31 1934.06 Q1647.34 1930.81 1642.42 1930.81 Q1636.85 1930.81 1633.49 1933.96 Q1630.16 1937.1 1629.66 1942.82 L1653.38 1942.78 Z" fill="#000000" fill-rule="evenodd" fill-opacity="1" /><path clip-path="url(#clip980)" d="M 0 0 M1690.49 1932.36 Q1689.37 1931.71 1688.03 1931.42 Q1686.73 1931.1 1685.14 1931.1 Q1679.5 1931.1 1676.46 1934.79 Q1673.46 1938.44 1673.46 1945.31 L1673.46 1966.65 L1666.77 1966.65 L1666.77 1926.14 L1673.46 1926.14 L1673.46 1932.44 Q1675.56 1928.75 1678.92 1926.97 Q1682.28 1925.17 1687.09 1925.17 Q1687.78 1925.17 1688.61 1925.27 Q1689.44 1925.35 1690.46 1925.53 L1690.49 1932.36 Z" fill="#000000" fill-rule="evenodd" fill-opacity="1" /><path clip-path="url(#clip980)" d="M 0 0 M1722.83 1945.93 Q1722.83 1938.69 1719.83 1934.71 Q1716.86 1930.74 1711.47 1930.74 Q1706.12 1930.74 1703.12 1934.71 Q1700.15 1938.69 1700.15 1945.93 Q1700.15 1953.12 1703.12 1957.1 Q1706.12 1961.08 1711.47 1961.08 Q1716.86 1961.08 1719.83 1957.1 Q1722.83 1953.12 1722.83 1945.93 M1729.48 1961.62 Q1729.48 1971.97 1724.89 1977 Q1720.3 1982.06 1710.82 1982.06 Q1707.31 1982.06 1704.2 1981.52 Q1701.09 1981.01 1698.16 1979.93 L1698.16 1973.45 Q1701.09 1975.04 1703.95 1975.8 Q1706.81 1976.56 1709.77 1976.56 Q1716.32 1976.56 1719.57 1973.13 Q1722.83 1969.73 1722.83 1962.82 L1722.83 1959.53 Q1720.77 1963.11 1717.55 1964.88 Q1714.33 1966.65 1709.84 1966.65 Q1702.39 1966.65 1697.84 1960.97 Q1693.28 1955.29 1693.28 1945.93 Q1693.28 1936.52 1697.84 1930.84 Q1702.39 1925.17 1709.84 1925.17 Q1714.33 1925.17 1717.55 1926.94 Q1720.77 1928.71 1722.83 1932.29 L1722.83 1926.14 L1729.48 1926.14 L1729.48 1961.62 Z" fill="#000000" fill-rule="evenodd" fill-opacity="1" /><path clip-path="url(#clip980)" d="M 0 0 M1753.32 1970.41 Q1750.5 1977.65 1747.82 1979.85 Q1745.14 1982.06 1740.66 1982.06 L1735.34 1982.06 L1735.34 1976.49 L1739.25 1976.49 Q1742 1976.49 1743.52 1975.19 Q1745.04 1973.89 1746.88 1969.04 L1748.07 1966 L1731.69 1926.14 L1738.74 1926.14 L1751.4 1957.83 L1764.06 1926.14 L1771.11 1926.14 L1753.32 1970.41 Z" fill="#000000" fill-rule="evenodd" fill-opacity="1" /><path clip-path="url(#clip980)" d="M 0 0 M1817.63 1910.45 Q1812.78 1918.76 1810.43 1926.9 Q1808.08 1935.04 1808.08 1943.4 Q1808.08 1951.75 1810.43 1959.96 Q1812.82 1968.13 1817.63 1976.42 L1811.84 1976.42 Q1806.41 1967.92 1803.7 1959.71 Q1801.02 1951.5 1801.02 1943.4 Q1801.02 1935.33 1803.7 1927.16 Q1806.38 1918.98 1811.84 1910.45 L1817.63 1910.45 Z" fill="#000000" fill-rule="evenodd" fill-opacity="1" /><path clip-path="url(#clip980)" d="M 0 0 M1861.72 1958.95 L1861.72 1944.44 L1849.78 1944.44 L1849.78 1938.44 L1868.95 1938.44 L1868.95 1961.62 Q1864.72 1964.63 1859.62 1966.18 Q1854.52 1967.7 1848.73 1967.7 Q1836.07 1967.7 1828.91 1960.32 Q1821.79 1952.91 1821.79 1939.71 Q1821.79 1926.47 1828.91 1919.09 Q1836.07 1911.68 1848.73 1911.68 Q1854.01 1911.68 1858.75 1912.98 Q1863.52 1914.28 1867.54 1916.81 L1867.54 1924.59 Q1863.49 1921.15 1858.93 1919.42 Q1854.37 1917.68 1849.35 1917.68 Q1839.44 1917.68 1834.44 1923.21 Q1829.49 1928.75 1829.49 1939.71 Q1829.49 1950.63 1834.44 1956.16 Q1839.44 1961.7 1849.35 1961.7 Q1853.22 1961.7 1856.25 1961.05 Q1859.29 1960.36 1861.72 1958.95 Z" fill="#000000" fill-rule="evenodd" fill-opacity="1" /><path clip-path="url(#clip980)" d="M 0 0 M1910.58 1944.73 L1910.58 1947.99 L1879.98 1947.99 Q1880.42 1954.86 1884.1 1958.48 Q1887.83 1962.06 1894.45 1962.06 Q1898.28 1962.06 1901.86 1961.12 Q1905.48 1960.18 1909.02 1958.3 L1909.02 1964.59 Q1905.44 1966.11 1901.68 1966.9 Q1897.92 1967.7 1894.05 1967.7 Q1884.36 1967.7 1878.68 1962.06 Q1873.04 1956.42 1873.04 1946.8 Q1873.04 1936.85 1878.39 1931.03 Q1883.78 1925.17 1892.89 1925.17 Q1901.07 1925.17 1905.81 1930.45 Q1910.58 1935.69 1910.58 1944.73 M1903.92 1942.78 Q1903.85 1937.32 1900.85 1934.06 Q1897.88 1930.81 1892.97 1930.81 Q1887.4 1930.81 1884.03 1933.96 Q1880.7 1937.1 1880.2 1942.82 L1903.92 1942.78 Z" fill="#000000" fill-rule="evenodd" fill-opacity="1" /><path clip-path="url(#clip980)" d="M 0 0 M1931.77 1966.65 L1911.16 1912.65 L1918.79 1912.65 L1935.9 1958.12 L1953.04 1912.65 L1960.64 1912.65 L1940.06 1966.65 L1931.77 1966.65 Z" fill="#000000" fill-rule="evenodd" fill-opacity="1" /><path clip-path="url(#clip980)" d="M 0 0 M1966.57 1910.45 L1972.36 1910.45 Q1977.78 1918.98 1980.46 1927.16 Q1983.17 1935.33 1983.17 1943.4 Q1983.17 1951.5 1980.46 1959.71 Q1977.78 1967.92 1972.36 1976.42 L1966.57 1976.42 Q1971.38 1968.13 1973.73 1959.96 Q1976.12 1951.75 1976.12 1943.4 Q1976.12 1935.04 1973.73 1926.9 Q1971.38 1918.76 1966.57 1910.45 Z" fill="#000000" fill-rule="evenodd" fill-opacity="1" /><polyline clip-path="url(#clip982)" style="stroke:#000000; stroke-width:10; stroke-opacity:0.3; fill:none" points="
  300.104,1769.02 2940.94,1769.02 
  "/>
<polyline clip-path="url(#clip982)" style="stroke:#000000; stroke-width:10; stroke-opacity:0.3; fill:none" points="
  300.104,1359.55 2940.94,1359.55 
  "/>
<polyline clip-path="url(#clip982)" style="stroke:#000000; stroke-width:10; stroke-opacity:0.3; fill:none" points="
  300.104,950.078 2940.94,950.078 
  "/>
<polyline clip-path="url(#clip982)" style="stroke:#000000; stroke-width:10; stroke-opacity:0.3; fill:none" points="
  300.104,540.607 2940.94,540.607 
  "/>
<polyline clip-path="url(#clip982)" style="stroke:#000000; stroke-width:10; stroke-opacity:0.3; fill:none" points="
  300.104,131.136 2940.94,131.136 
  "/>
<polyline clip-path="url(#clip980)" style="stroke:#000000; stroke-width:5; stroke-opacity:1; fill:none" points="
  300.104,1769.02 300.104,131.136 
  "/>
<polyline clip-path="url(#clip980)" style="stroke:#000000; stroke-width:5; stroke-opacity:1; fill:none" points="
  2940.94,1769.02 2940.94,131.136 
  "/>
<polyline clip-path="url(#clip980)" style="stroke:#000000; stroke-width:5; stroke-opacity:1; fill:none" points="
  300.104,1769.02 331.794,1769.02 
  "/>
<polyline clip-path="url(#clip980)" style="stroke:#000000; stroke-width:5; stroke-opacity:1; fill:none" points="
  300.104,1359.55 331.794,1359.55 
  "/>
<polyline clip-path="url(#clip980)" style="stroke:#000000; stroke-width:5; stroke-opacity:1; fill:none" points="
  300.104,950.078 331.794,950.078 
  "/>
<polyline clip-path="url(#clip980)" style="stroke:#000000; stroke-width:5; stroke-opacity:1; fill:none" points="
  300.104,540.607 331.794,540.607 
  "/>
<polyline clip-path="url(#clip980)" style="stroke:#000000; stroke-width:5; stroke-opacity:1; fill:none" points="
  300.104,131.136 331.794,131.136 
  "/>
<path clip-path="url(#clip980)" d="M 0 0 M137.425 1769.59 L174.52 1769.59 L174.52 1774.5 L137.425 1774.5 L137.425 1769.59 Z" fill="#000000" fill-rule="evenodd" fill-opacity="1" /><path clip-path="url(#clip980)" d="M 0 0 M193.357 1751.27 Q188.843 1751.27 186.557 1755.73 Q184.3 1760.15 184.3 1769.06 Q184.3 1777.95 186.557 1782.4 Q188.843 1786.83 193.357 1786.83 Q197.899 1786.83 200.156 1782.4 Q202.442 1777.95 202.442 1769.06 Q202.442 1760.15 200.156 1755.73 Q197.899 1751.27 193.357 1751.27 M193.357 1746.64 Q200.619 1746.64 204.439 1752.4 Q208.287 1758.13 208.287 1769.06 Q208.287 1779.97 204.439 1785.73 Q200.619 1791.46 193.357 1791.46 Q186.094 1791.46 182.246 1785.73 Q178.426 1779.97 178.426 1769.06 Q178.426 1758.13 182.246 1752.4 Q186.094 1746.64 193.357 1746.64 Z" fill="#000000" fill-rule="evenodd" fill-opacity="1" /><path clip-path="url(#clip980)" d="M 0 0 M214.624 1783.27 L220.729 1783.27 L220.729 1790.62 L214.624 1790.62 L214.624 1783.27 Z" fill="#000000" fill-rule="evenodd" fill-opacity="1" /><path clip-path="url(#clip980)" d="M 0 0 M243.125 1752.51 L228.368 1775.57 L243.125 1775.57 L243.125 1752.51 M241.591 1747.42 L248.941 1747.42 L248.941 1775.57 L255.104 1775.57 L255.104 1780.44 L248.941 1780.44 L248.941 1790.62 L243.125 1790.62 L243.125 1780.44 L223.623 1780.44 L223.623 1774.79 L241.591 1747.42 Z" fill="#000000" fill-rule="evenodd" fill-opacity="1" /><path clip-path="url(#clip980)" d="M 0 0 M140.029 1360.11 L177.124 1360.11 L177.124 1365.03 L140.029 1365.03 L140.029 1360.11 Z" fill="#000000" fill-rule="evenodd" fill-opacity="1" /><path clip-path="url(#clip980)" d="M 0 0 M195.961 1341.8 Q191.447 1341.8 189.161 1346.25 Q186.904 1350.68 186.904 1359.59 Q186.904 1368.48 189.161 1372.93 Q191.447 1377.36 195.961 1377.36 Q200.504 1377.36 202.76 1372.93 Q205.046 1368.48 205.046 1359.59 Q205.046 1350.68 202.76 1346.25 Q200.504 1341.8 195.961 1341.8 M195.961 1337.17 Q203.223 1337.17 207.043 1342.93 Q210.891 1348.66 210.891 1359.59 Q210.891 1370.5 207.043 1376.26 Q203.223 1381.99 195.961 1381.99 Q188.698 1381.99 184.85 1376.26 Q181.03 1370.5 181.03 1359.59 Q181.03 1348.66 184.85 1342.93 Q188.698 1337.17 195.961 1337.17 Z" fill="#000000" fill-rule="evenodd" fill-opacity="1" /><path clip-path="url(#clip980)" d="M 0 0 M217.228 1373.8 L223.333 1373.8 L223.333 1381.15 L217.228 1381.15 L217.228 1373.8 Z" fill="#000000" fill-rule="evenodd" fill-opacity="1" /><path clip-path="url(#clip980)" d="M 0 0 M234.705 1376.23 L255.104 1376.23 L255.104 1381.15 L227.674 1381.15 L227.674 1376.23 Q231.001 1372.79 236.73 1367 Q242.488 1361.18 243.964 1359.51 Q246.771 1356.35 247.87 1354.18 Q248.999 1351.98 248.999 1349.87 Q248.999 1346.43 246.568 1344.26 Q244.167 1342.09 240.289 1342.09 Q237.54 1342.09 234.473 1343.04 Q231.435 1344 227.963 1345.94 L227.963 1340.03 Q231.493 1338.62 234.56 1337.89 Q237.627 1337.17 240.173 1337.17 Q246.886 1337.17 250.879 1340.52 Q254.872 1343.88 254.872 1349.49 Q254.872 1352.16 253.86 1354.56 Q252.876 1356.93 250.243 1360.17 Q249.52 1361.01 245.642 1365.03 Q241.765 1369.03 234.705 1376.23 Z" fill="#000000" fill-rule="evenodd" fill-opacity="1" /><path clip-path="url(#clip980)" d="M 0 0 M193.964 932.327 Q189.45 932.327 187.165 936.783 Q184.908 941.21 184.908 950.122 Q184.908 959.005 187.165 963.461 Q189.45 967.888 193.964 967.888 Q198.507 967.888 200.764 963.461 Q203.05 959.005 203.05 950.122 Q203.05 941.21 200.764 936.783 Q198.507 932.327 193.964 932.327 M193.964 927.697 Q201.227 927.697 205.046 933.455 Q208.895 939.184 208.895 950.122 Q208.895 961.03 205.046 966.788 Q201.227 972.517 193.964 972.517 Q186.702 972.517 182.853 966.788 Q179.034 961.03 179.034 950.122 Q179.034 939.184 182.853 933.455 Q186.702 927.697 193.964 927.697 Z" fill="#000000" fill-rule="evenodd" fill-opacity="1" /><path clip-path="url(#clip980)" d="M 0 0 M215.231 964.329 L221.337 964.329 L221.337 971.678 L215.231 971.678 L215.231 964.329 Z" fill="#000000" fill-rule="evenodd" fill-opacity="1" /><path clip-path="url(#clip980)" d="M 0 0 M240.173 932.327 Q235.66 932.327 233.374 936.783 Q231.117 941.21 231.117 950.122 Q231.117 959.005 233.374 963.461 Q235.66 967.888 240.173 967.888 Q244.716 967.888 246.973 963.461 Q249.259 959.005 249.259 950.122 Q249.259 941.21 246.973 936.783 Q244.716 932.327 240.173 932.327 M240.173 927.697 Q247.436 927.697 251.256 933.455 Q255.104 939.184 255.104 950.122 Q255.104 961.03 251.256 966.788 Q247.436 972.517 240.173 972.517 Q232.911 972.517 229.062 966.788 Q225.243 961.03 225.243 950.122 Q225.243 939.184 229.062 933.455 Q232.911 927.697 240.173 927.697 Z" fill="#000000" fill-rule="evenodd" fill-opacity="1" /><path clip-path="url(#clip980)" d="M 0 0 M195.961 522.855 Q191.447 522.855 189.161 527.311 Q186.904 531.738 186.904 540.65 Q186.904 549.533 189.161 553.989 Q191.447 558.416 195.961 558.416 Q200.504 558.416 202.76 553.989 Q205.046 549.533 205.046 540.65 Q205.046 531.738 202.76 527.311 Q200.504 522.855 195.961 522.855 M195.961 518.226 Q203.223 518.226 207.043 523.984 Q210.891 529.713 210.891 540.65 Q210.891 551.559 207.043 557.317 Q203.223 563.046 195.961 563.046 Q188.698 563.046 184.85 557.317 Q181.03 551.559 181.03 540.65 Q181.03 529.713 184.85 523.984 Q188.698 518.226 195.961 518.226 Z" fill="#000000" fill-rule="evenodd" fill-opacity="1" /><path clip-path="url(#clip980)" d="M 0 0 M217.228 554.857 L223.333 554.857 L223.333 562.207 L217.228 562.207 L217.228 554.857 Z" fill="#000000" fill-rule="evenodd" fill-opacity="1" /><path clip-path="url(#clip980)" d="M 0 0 M234.705 557.288 L255.104 557.288 L255.104 562.207 L227.674 562.207 L227.674 557.288 Q231.001 553.845 236.73 548.058 Q242.488 542.242 243.964 540.564 Q246.771 537.41 247.87 535.24 Q248.999 533.04 248.999 530.928 Q248.999 527.485 246.568 525.315 Q244.167 523.145 240.289 523.145 Q237.54 523.145 234.473 524.1 Q231.435 525.054 227.963 526.993 L227.963 521.09 Q231.493 519.672 234.56 518.949 Q237.627 518.226 240.173 518.226 Q246.886 518.226 250.879 521.582 Q254.872 524.939 254.872 530.552 Q254.872 533.214 253.86 535.616 Q252.876 537.988 250.243 541.229 Q249.52 542.068 245.642 546.09 Q241.765 550.083 234.705 557.288 Z" fill="#000000" fill-rule="evenodd" fill-opacity="1" /><path clip-path="url(#clip980)" d="M 0 0 M193.357 113.384 Q188.843 113.384 186.557 117.84 Q184.3 122.267 184.3 131.179 Q184.3 140.062 186.557 144.518 Q188.843 148.945 193.357 148.945 Q197.899 148.945 200.156 144.518 Q202.442 140.062 202.442 131.179 Q202.442 122.267 200.156 117.84 Q197.899 113.384 193.357 113.384 M193.357 108.754 Q200.619 108.754 204.439 114.513 Q208.287 120.242 208.287 131.179 Q208.287 142.088 204.439 147.846 Q200.619 153.575 193.357 153.575 Q186.094 153.575 182.246 147.846 Q178.426 142.088 178.426 131.179 Q178.426 120.242 182.246 114.513 Q186.094 108.754 193.357 108.754 Z" fill="#000000" fill-rule="evenodd" fill-opacity="1" /><path clip-path="url(#clip980)" d="M 0 0 M214.624 145.386 L220.729 145.386 L220.729 152.736 L214.624 152.736 L214.624 145.386 Z" fill="#000000" fill-rule="evenodd" fill-opacity="1" /><path clip-path="url(#clip980)" d="M 0 0 M243.125 114.628 L228.368 137.689 L243.125 137.689 L243.125 114.628 M241.591 109.536 L248.941 109.536 L248.941 137.689 L255.104 137.689 L255.104 142.551 L248.941 142.551 L248.941 152.736 L243.125 152.736 L243.125 142.551 L223.623 142.551 L223.623 136.908 L241.591 109.536 Z" fill="#000000" fill-rule="evenodd" fill-opacity="1" /><path clip-path="url(#clip980)" d="M 0 0 M22.2252 1141.05 L22.2252 1106.91 L28.3739 1106.91 L28.3739 1133.74 L44.3605 1133.74 L44.3605 1108.03 L50.5092 1108.03 L50.5092 1133.74 L70.0765 1133.74 L70.0765 1106.26 L76.2252 1106.26 L76.2252 1141.05 L22.2252 1141.05 Z" fill="#000000" fill-rule="evenodd" fill-opacity="1" /><path clip-path="url(#clip980)" d="M 0 0 M51.7751 1065.6 L76.2252 1065.6 L76.2252 1072.26 L51.9921 1072.26 Q46.2413 1072.26 43.3839 1074.5 Q40.5266 1076.74 40.5266 1081.23 Q40.5266 1086.62 43.9626 1089.73 Q47.3987 1092.84 53.3304 1092.84 L76.2252 1092.84 L76.2252 1099.53 L35.7162 1099.53 L35.7162 1092.84 L42.0095 1092.84 Q38.3565 1090.45 36.548 1087.23 Q34.7396 1083.98 34.7396 1079.74 Q34.7396 1072.76 39.0799 1069.18 Q43.3839 1065.6 51.7751 1065.6 Z" fill="#000000" fill-rule="evenodd" fill-opacity="1" /><path clip-path="url(#clip980)" d="M 0 0 M54.3069 1023.97 L57.5621 1023.97 L57.5621 1054.57 Q64.4342 1054.14 68.0511 1050.45 Q71.6318 1046.72 71.6318 1040.1 Q71.6318 1036.27 70.6914 1032.69 Q69.751 1029.07 67.8702 1025.53 L74.1636 1025.53 Q75.6827 1029.11 76.4784 1032.87 Q77.2741 1036.63 77.2741 1040.5 Q77.2741 1050.19 71.6318 1055.87 Q65.9894 1061.51 56.3685 1061.51 Q46.4221 1061.51 40.5989 1056.16 Q34.7396 1050.77 34.7396 1041.66 Q34.7396 1033.48 40.0202 1028.75 Q45.2647 1023.97 54.3069 1023.97 M52.3538 1030.63 Q46.8923 1030.7 43.6371 1033.7 Q40.3819 1036.67 40.3819 1041.59 Q40.3819 1047.16 43.5286 1050.52 Q46.6753 1053.85 52.39 1054.35 L52.3538 1030.63 Z" fill="#000000" fill-rule="evenodd" fill-opacity="1" /><path clip-path="url(#clip980)" d="M 0 0 M41.9372 993.517 Q41.2861 994.638 40.9968 995.976 Q40.6713 997.279 40.6713 998.87 Q40.6713 1004.51 44.3605 1007.55 Q48.0135 1010.55 54.8856 1010.55 L76.2252 1010.55 L76.2252 1017.24 L35.7162 1017.24 L35.7162 1010.55 L42.0095 1010.55 Q38.3203 1008.45 36.548 1005.09 Q34.7396 1001.73 34.7396 996.917 Q34.7396 996.23 34.8481 995.398 Q34.9204 994.566 35.1013 993.553 L41.9372 993.517 Z" fill="#000000" fill-rule="evenodd" fill-opacity="1" /><path clip-path="url(#clip980)" d="M 0 0 M55.5005 961.182 Q48.2667 961.182 44.2882 964.184 Q40.3096 967.15 40.3096 972.539 Q40.3096 977.892 44.2882 980.894 Q48.2667 983.86 55.5005 983.86 Q62.6981 983.86 66.6766 980.894 Q70.6552 977.892 70.6552 972.539 Q70.6552 967.15 66.6766 964.184 Q62.6981 961.182 55.5005 961.182 M71.1977 954.527 Q81.542 954.527 86.5695 959.12 Q91.6331 963.714 91.6331 973.19 Q91.6331 976.698 91.0906 979.809 Q90.5842 982.92 89.4991 985.849 L83.0249 985.849 Q84.6164 982.92 85.3759 980.062 Q86.1354 977.205 86.1354 974.239 Q86.1354 967.692 82.6994 964.437 Q79.2995 961.182 72.3913 961.182 L69.0999 961.182 Q72.6807 963.244 74.4529 966.463 Q76.2252 969.682 76.2252 974.167 Q76.2252 981.617 70.5467 986.175 Q64.8682 990.732 55.5005 990.732 Q46.0966 990.732 40.4181 986.175 Q34.7396 981.617 34.7396 974.167 Q34.7396 969.682 36.5119 966.463 Q38.2841 963.244 41.8648 961.182 L35.7162 961.182 L35.7162 954.527 L71.1977 954.527 Z" fill="#000000" fill-rule="evenodd" fill-opacity="1" /><path clip-path="url(#clip980)" d="M 0 0 M79.9868 930.692 Q87.2205 933.513 89.4268 936.189 Q91.6331 938.866 91.6331 943.351 L91.6331 948.668 L86.0631 948.668 L86.0631 944.761 Q86.0631 942.013 84.761 940.494 Q83.459 938.974 78.6123 937.13 L75.5742 935.936 L35.7162 952.321 L35.7162 945.268 L67.4 932.609 L35.7162 919.95 L35.7162 912.897 L79.9868 930.692 Z" fill="#000000" fill-rule="evenodd" fill-opacity="1" /><path clip-path="url(#clip980)" d="M 0 0 M56.0068 853.291 Q48.6646 853.291 44.5052 856.329 Q40.3096 859.331 40.3096 864.611 Q40.3096 869.892 44.5052 872.93 Q48.6646 875.932 56.0068 875.932 Q63.3491 875.932 67.5447 872.93 Q71.7041 869.892 71.7041 864.611 Q71.7041 859.331 67.5447 856.329 Q63.3491 853.291 56.0068 853.291 M41.8648 875.932 Q38.248 873.834 36.5119 870.652 Q34.7396 867.433 34.7396 862.984 Q34.7396 855.605 40.5989 851.012 Q46.4583 846.382 56.0068 846.382 Q65.5554 846.382 71.4147 851.012 Q77.2741 855.605 77.2741 862.984 Q77.2741 867.433 75.538 870.652 Q73.7657 873.834 70.1488 875.932 L76.2252 875.932 L76.2252 882.623 L19.9466 882.623 L19.9466 875.932 L41.8648 875.932 Z" fill="#000000" fill-rule="evenodd" fill-opacity="1" /><path clip-path="url(#clip980)" d="M 0 0 M35.7162 839.402 L35.7162 832.747 L76.2252 832.747 L76.2252 839.402 L35.7162 839.402 M19.9466 839.402 L19.9466 832.747 L28.3739 832.747 L28.3739 839.402 L19.9466 839.402 Z" fill="#000000" fill-rule="evenodd" fill-opacity="1" /><path clip-path="url(#clip980)" d="M 0 0 M55.8622 807.356 Q55.8622 815.422 57.7068 818.532 Q59.5514 821.643 64.0001 821.643 Q67.5447 821.643 69.6425 819.328 Q71.7041 816.977 71.7041 812.962 Q71.7041 807.429 67.7979 804.101 Q63.8555 800.737 57.3451 800.737 L55.8622 800.737 L55.8622 807.356 M53.1133 794.082 L76.2252 794.082 L76.2252 800.737 L70.0765 800.737 Q73.7657 803.016 75.538 806.416 Q77.2741 809.816 77.2741 814.735 Q77.2741 820.956 73.8019 824.645 Q70.2935 828.298 64.4342 828.298 Q57.5983 828.298 54.1261 823.741 Q50.6539 819.147 50.6539 810.069 L50.6539 800.737 L50.0028 800.737 Q45.4094 800.737 42.9137 803.776 Q40.3819 806.778 40.3819 812.239 Q40.3819 815.711 41.2138 819.003 Q42.0457 822.294 43.7095 825.332 L37.5608 825.332 Q36.1502 821.679 35.463 818.243 Q34.7396 814.807 34.7396 811.552 Q34.7396 802.763 39.2969 798.423 Q43.8541 794.082 53.1133 794.082 Z" fill="#000000" fill-rule="evenodd" fill-opacity="1" /><path clip-path="url(#clip980)" d="M 0 0 M36.9097 761.277 L43.2031 761.277 Q41.7563 764.098 41.033 767.137 Q40.3096 770.175 40.3096 773.43 Q40.3096 778.385 41.8287 780.881 Q43.3478 783.34 46.3859 783.34 Q48.7007 783.34 50.039 781.568 Q51.3411 779.796 52.5346 774.443 L53.041 772.164 Q54.5601 765.075 57.3451 762.109 Q60.0939 759.107 65.049 759.107 Q70.6914 759.107 73.9827 763.592 Q77.2741 768.041 77.2741 775.853 Q77.2741 779.108 76.6231 782.653 Q76.0082 786.161 74.7423 790.068 L67.8702 790.068 Q69.7872 786.378 70.7637 782.798 Q71.7041 779.217 71.7041 775.709 Q71.7041 771.007 70.1127 768.475 Q68.4851 765.943 65.5554 765.943 Q62.8427 765.943 61.396 767.788 Q59.9492 769.596 58.611 775.781 L58.0685 778.096 Q56.7664 784.281 54.0899 787.029 Q51.3772 789.778 46.6753 789.778 Q40.9606 789.778 37.8501 785.727 Q34.7396 781.676 34.7396 774.226 Q34.7396 770.536 35.2821 767.281 Q35.8247 764.026 36.9097 761.277 Z" fill="#000000" fill-rule="evenodd" fill-opacity="1" /><path clip-path="url(#clip980)" d="M 0 0 M1120.45 10.8 L1154.6 10.8 L1154.6 16.9487 L1127.76 16.9487 L1127.76 32.9353 L1153.48 32.9353 L1153.48 39.084 L1127.76 39.084 L1127.76 58.6513 L1155.25 58.6513 L1155.25 64.8 L1120.45 64.8 L1120.45 10.8 Z" fill="#000000" fill-rule="evenodd" fill-opacity="1" /><path clip-path="url(#clip980)" d="M 0 0 M1195.9 40.3499 L1195.9 64.8 L1189.25 64.8 L1189.25 40.5669 Q1189.25 34.8161 1187.01 31.9587 Q1184.76 29.1014 1180.28 29.1014 Q1174.89 29.1014 1171.78 32.5374 Q1168.67 35.9735 1168.67 41.9052 L1168.67 64.8 L1161.98 64.8 L1161.98 24.291 L1168.67 24.291 L1168.67 30.5843 Q1171.05 26.9313 1174.27 25.1228 Q1177.53 23.3144 1181.76 23.3144 Q1188.74 23.3144 1192.32 27.6547 Q1195.9 31.9587 1195.9 40.3499 Z" fill="#000000" fill-rule="evenodd" fill-opacity="1" /><path clip-path="url(#clip980)" d="M 0 0 M1237.53 42.8817 L1237.53 46.1369 L1206.93 46.1369 Q1207.37 53.009 1211.06 56.6259 Q1214.78 60.2066 1221.4 60.2066 Q1225.24 60.2066 1228.82 59.2662 Q1232.43 58.3258 1235.98 56.445 L1235.98 62.7384 Q1232.4 64.2575 1228.64 65.0532 Q1224.87 65.8489 1221 65.8489 Q1211.31 65.8489 1205.63 60.2066 Q1199.99 54.5642 1199.99 44.9433 Q1199.99 34.9969 1205.34 29.1737 Q1210.73 23.3144 1219.85 23.3144 Q1228.02 23.3144 1232.76 28.595 Q1237.53 33.8395 1237.53 42.8817 M1230.88 40.9286 Q1230.81 35.4671 1227.8 32.2119 Q1224.84 28.9567 1219.92 28.9567 Q1214.35 28.9567 1210.99 32.1034 Q1207.66 35.2501 1207.15 40.9648 L1230.88 40.9286 Z" fill="#000000" fill-rule="evenodd" fill-opacity="1" /><path clip-path="url(#clip980)" d="M 0 0 M1267.99 30.512 Q1266.87 29.861 1265.53 29.5716 Q1264.23 29.2461 1262.63 29.2461 Q1256.99 29.2461 1253.95 32.9353 Q1250.95 36.5883 1250.95 43.4604 L1250.95 64.8 L1244.26 64.8 L1244.26 24.291 L1250.95 24.291 L1250.95 30.5843 Q1253.05 26.8951 1256.41 25.1228 Q1259.78 23.3144 1264.59 23.3144 Q1265.27 23.3144 1266.11 23.4229 Q1266.94 23.4952 1267.95 23.6761 L1267.99 30.512 Z" fill="#000000" fill-rule="evenodd" fill-opacity="1" /><path clip-path="url(#clip980)" d="M 0 0 M1300.32 44.0753 Q1300.32 36.8415 1297.32 32.863 Q1294.35 28.8844 1288.97 28.8844 Q1283.61 28.8844 1280.61 32.863 Q1277.64 36.8415 1277.64 44.0753 Q1277.64 51.2729 1280.61 55.2514 Q1283.61 59.23 1288.97 59.23 Q1294.35 59.23 1297.32 55.2514 Q1300.32 51.2729 1300.32 44.0753 M1306.98 59.7725 Q1306.98 70.1168 1302.38 75.1443 Q1297.79 80.2079 1288.31 80.2079 Q1284.81 80.2079 1281.7 79.6654 Q1278.58 79.159 1275.66 78.0739 L1275.66 71.5997 Q1278.58 73.1912 1281.44 73.9507 Q1284.3 74.7102 1287.27 74.7102 Q1293.81 74.7102 1297.07 71.2742 Q1300.32 67.8743 1300.32 60.9661 L1300.32 57.6747 Q1298.26 61.2555 1295.04 63.0277 Q1291.82 64.8 1287.34 64.8 Q1279.89 64.8 1275.33 59.1215 Q1270.77 53.443 1270.77 44.0753 Q1270.77 34.6714 1275.33 28.9929 Q1279.89 23.3144 1287.34 23.3144 Q1291.82 23.3144 1295.04 25.0867 Q1298.26 26.8589 1300.32 30.4397 L1300.32 24.291 L1306.98 24.291 L1306.98 59.7725 Z" fill="#000000" fill-rule="evenodd" fill-opacity="1" /><path clip-path="url(#clip980)" d="M 0 0 M1330.81 68.5616 Q1327.99 75.7953 1325.31 78.0016 Q1322.64 80.2079 1318.15 80.2079 L1312.84 80.2079 L1312.84 74.6379 L1316.74 74.6379 Q1319.49 74.6379 1321.01 73.3358 Q1322.53 72.0338 1324.37 67.1871 L1325.57 64.149 L1309.18 24.291 L1316.24 24.291 L1328.9 55.9748 L1341.55 24.291 L1348.61 24.291 L1330.81 68.5616 Z" fill="#000000" fill-rule="evenodd" fill-opacity="1" /><path clip-path="url(#clip980)" d="M 0 0 M1408.21 44.5816 Q1408.21 37.2394 1405.18 33.08 Q1402.17 28.8844 1396.89 28.8844 Q1391.61 28.8844 1388.57 33.08 Q1385.57 37.2394 1385.57 44.5816 Q1385.57 51.9239 1388.57 56.1195 Q1391.61 60.2789 1396.89 60.2789 Q1402.17 60.2789 1405.18 56.1195 Q1408.21 51.9239 1408.21 44.5816 M1385.57 30.4397 Q1387.67 26.8228 1390.85 25.0867 Q1394.07 23.3144 1398.52 23.3144 Q1405.9 23.3144 1410.49 29.1737 Q1415.12 35.0331 1415.12 44.5816 Q1415.12 54.1302 1410.49 59.9896 Q1405.9 65.8489 1398.52 65.8489 Q1394.07 65.8489 1390.85 64.1128 Q1387.67 62.3405 1385.57 58.7236 L1385.57 64.8 L1378.88 64.8 L1378.88 8.52137 L1385.57 8.52137 L1385.57 30.4397 Z" fill="#000000" fill-rule="evenodd" fill-opacity="1" /><path clip-path="url(#clip980)" d="M 0 0 M1422.1 24.291 L1428.76 24.291 L1428.76 64.8 L1422.1 64.8 L1422.1 24.291 M1422.1 8.52137 L1428.76 8.52137 L1428.76 16.9487 L1422.1 16.9487 L1422.1 8.52137 Z" fill="#000000" fill-rule="evenodd" fill-opacity="1" /><path clip-path="url(#clip980)" d="M 0 0 M1454.15 44.437 Q1446.08 44.437 1442.97 46.2816 Q1439.86 48.1262 1439.86 52.5749 Q1439.86 56.1195 1442.18 58.2173 Q1444.53 60.2789 1448.54 60.2789 Q1454.08 60.2789 1457.4 56.3727 Q1460.77 52.4303 1460.77 45.9199 L1460.77 44.437 L1454.15 44.437 M1467.42 41.6881 L1467.42 64.8 L1460.77 64.8 L1460.77 58.6513 Q1458.49 62.3405 1455.09 64.1128 Q1451.69 65.8489 1446.77 65.8489 Q1440.55 65.8489 1436.86 62.3767 Q1433.21 58.8683 1433.21 53.009 Q1433.21 46.1731 1437.76 42.7009 Q1442.36 39.2287 1451.44 39.2287 L1460.77 39.2287 L1460.77 38.5776 Q1460.77 33.9842 1457.73 31.4885 Q1454.73 28.9567 1449.27 28.9567 Q1445.79 28.9567 1442.5 29.7886 Q1439.21 30.6205 1436.17 32.2843 L1436.17 26.1356 Q1439.83 24.725 1443.26 24.0378 Q1446.7 23.3144 1449.95 23.3144 Q1458.74 23.3144 1463.08 27.8717 Q1467.42 32.4289 1467.42 41.6881 Z" fill="#000000" fill-rule="evenodd" fill-opacity="1" /><path clip-path="url(#clip980)" d="M 0 0 M1500.23 25.4845 L1500.23 31.7779 Q1497.41 30.3311 1494.37 29.6078 Q1491.33 28.8844 1488.07 28.8844 Q1483.12 28.8844 1480.62 30.4035 Q1478.16 31.9226 1478.16 34.9608 Q1478.16 37.2756 1479.94 38.6138 Q1481.71 39.9159 1487.06 41.1094 L1489.34 41.6158 Q1496.43 43.1349 1499.4 45.9199 Q1502.4 48.6687 1502.4 53.6238 Q1502.4 59.2662 1497.91 62.5575 Q1493.46 65.8489 1485.65 65.8489 Q1482.4 65.8489 1478.85 65.1979 Q1475.34 64.583 1471.44 63.3171 L1471.44 56.445 Q1475.13 58.362 1478.71 59.3385 Q1482.29 60.2789 1485.8 60.2789 Q1490.5 60.2789 1493.03 58.6875 Q1495.56 57.0599 1495.56 54.1302 Q1495.56 51.4175 1493.72 49.9708 Q1491.91 48.524 1485.72 47.1858 L1483.41 46.6433 Q1477.22 45.3412 1474.47 42.6647 Q1471.73 39.952 1471.73 35.2501 Q1471.73 29.5354 1475.78 26.4249 Q1479.83 23.3144 1487.28 23.3144 Q1490.97 23.3144 1494.22 23.8569 Q1497.48 24.3995 1500.23 25.4845 Z" fill="#000000" fill-rule="evenodd" fill-opacity="1" /><path clip-path="url(#clip980)" d="M 0 0 M1553.43 8.52137 L1553.43 14.0552 L1547.07 14.0552 Q1543.48 14.0552 1542.07 15.5019 Q1540.7 16.9487 1540.7 20.7102 L1540.7 24.291 L1551.66 24.291 L1551.66 29.4631 L1540.7 29.4631 L1540.7 64.8 L1534.01 64.8 L1534.01 29.4631 L1527.64 29.4631 L1527.64 24.291 L1534.01 24.291 L1534.01 21.4698 Q1534.01 14.7062 1537.16 11.6319 Q1540.3 8.52137 1547.14 8.52137 L1553.43 8.52137 Z" fill="#000000" fill-rule="evenodd" fill-opacity="1" /><path clip-path="url(#clip980)" d="M 0 0 M1576.11 28.9567 Q1570.76 28.9567 1567.65 33.1523 Q1564.54 37.3117 1564.54 44.5816 Q1564.54 51.8516 1567.61 56.0472 Q1570.72 60.2066 1576.11 60.2066 Q1581.43 60.2066 1584.54 56.011 Q1587.65 51.8154 1587.65 44.5816 Q1587.65 37.3841 1584.54 33.1885 Q1581.43 28.9567 1576.11 28.9567 M1576.11 23.3144 Q1584.79 23.3144 1589.74 28.9567 Q1594.7 34.5991 1594.7 44.5816 Q1594.7 54.5281 1589.74 60.2066 Q1584.79 65.8489 1576.11 65.8489 Q1567.39 65.8489 1562.44 60.2066 Q1557.52 54.5281 1557.52 44.5816 Q1557.52 34.5991 1562.44 28.9567 Q1567.39 23.3144 1576.11 23.3144 Z" fill="#000000" fill-rule="evenodd" fill-opacity="1" /><path clip-path="url(#clip980)" d="M 0 0 M1625.15 30.512 Q1624.03 29.861 1622.69 29.5716 Q1621.39 29.2461 1619.8 29.2461 Q1614.16 29.2461 1611.12 32.9353 Q1608.12 36.5883 1608.12 43.4604 L1608.12 64.8 L1601.43 64.8 L1601.43 24.291 L1608.12 24.291 L1608.12 30.5843 Q1610.22 26.8951 1613.58 25.1228 Q1616.94 23.3144 1621.75 23.3144 Q1622.44 23.3144 1623.27 23.4229 Q1624.11 23.4952 1625.12 23.6761 L1625.15 30.512 Z" fill="#000000" fill-rule="evenodd" fill-opacity="1" /><path clip-path="url(#clip980)" d="M 0 0 M1657.89 58.6513 L1669.82 58.6513 L1669.82 17.4551 L1656.84 20.0592 L1656.84 13.4042 L1669.75 10.8 L1677.06 10.8 L1677.06 58.6513 L1688.99 58.6513 L1688.99 64.8 L1657.89 64.8 L1657.89 58.6513 Z" fill="#000000" fill-rule="evenodd" fill-opacity="1" /><path clip-path="url(#clip980)" d="M 0 0 M1712.54 15.6104 Q1706.9 15.6104 1704.04 21.1804 Q1701.22 26.7143 1701.22 37.8543 Q1701.22 48.9581 1704.04 54.5281 Q1706.9 60.0619 1712.54 60.0619 Q1718.22 60.0619 1721.04 54.5281 Q1723.89 48.9581 1723.89 37.8543 Q1723.89 26.7143 1721.04 21.1804 Q1718.22 15.6104 1712.54 15.6104 M1712.54 9.82344 Q1721.62 9.82344 1726.39 17.021 Q1731.2 24.1825 1731.2 37.8543 Q1731.2 51.4899 1726.39 58.6875 Q1721.62 65.8489 1712.54 65.8489 Q1703.46 65.8489 1698.65 58.6875 Q1693.87 51.4899 1693.87 37.8543 Q1693.87 24.1825 1698.65 17.021 Q1703.46 9.82344 1712.54 9.82344 Z" fill="#000000" fill-rule="evenodd" fill-opacity="1" /><path clip-path="url(#clip980)" d="M 0 0 M1754.75 15.6104 Q1749.1 15.6104 1746.25 21.1804 Q1743.43 26.7143 1743.43 37.8543 Q1743.43 48.9581 1746.25 54.5281 Q1749.1 60.0619 1754.75 60.0619 Q1760.43 60.0619 1763.25 54.5281 Q1766.1 48.9581 1766.1 37.8543 Q1766.1 26.7143 1763.25 21.1804 Q1760.43 15.6104 1754.75 15.6104 M1754.75 9.82344 Q1763.83 9.82344 1768.6 17.021 Q1773.41 24.1825 1773.41 37.8543 Q1773.41 51.4899 1768.6 58.6875 Q1763.83 65.8489 1754.75 65.8489 Q1745.67 65.8489 1740.86 58.6875 Q1736.08 51.4899 1736.08 37.8543 Q1736.08 24.1825 1740.86 17.021 Q1745.67 9.82344 1754.75 9.82344 Z" fill="#000000" fill-rule="evenodd" fill-opacity="1" /><path clip-path="url(#clip980)" d="M 0 0 M1796.96 15.6104 Q1791.31 15.6104 1788.46 21.1804 Q1785.63 26.7143 1785.63 37.8543 Q1785.63 48.9581 1788.46 54.5281 Q1791.31 60.0619 1796.96 60.0619 Q1802.63 60.0619 1805.46 54.5281 Q1808.31 48.9581 1808.31 37.8543 Q1808.31 26.7143 1805.46 21.1804 Q1802.63 15.6104 1796.96 15.6104 M1796.96 9.82344 Q1806.03 9.82344 1810.81 17.021 Q1815.62 24.1825 1815.62 37.8543 Q1815.62 51.4899 1810.81 58.6875 Q1806.03 65.8489 1796.96 65.8489 Q1787.88 65.8489 1783.07 58.6875 Q1778.29 51.4899 1778.29 37.8543 Q1778.29 24.1825 1783.07 17.021 Q1787.88 9.82344 1796.96 9.82344 Z" fill="#000000" fill-rule="evenodd" fill-opacity="1" /><path clip-path="url(#clip980)" d="M 0 0 M1871.97 25.4845 L1871.97 31.7779 Q1869.15 30.3311 1866.11 29.6078 Q1863.07 28.8844 1859.82 28.8844 Q1854.86 28.8844 1852.37 30.4035 Q1849.91 31.9226 1849.91 34.9608 Q1849.91 37.2756 1851.68 38.6138 Q1853.45 39.9159 1858.8 41.1094 L1861.08 41.6158 Q1868.17 43.1349 1871.14 45.9199 Q1874.14 48.6687 1874.14 53.6238 Q1874.14 59.2662 1869.66 62.5575 Q1865.21 65.8489 1857.39 65.8489 Q1854.14 65.8489 1850.59 65.1979 Q1847.09 64.583 1843.18 63.3171 L1843.18 56.445 Q1846.87 58.362 1850.45 59.3385 Q1854.03 60.2789 1857.54 60.2789 Q1862.24 60.2789 1864.77 58.6875 Q1867.3 57.0599 1867.3 54.1302 Q1867.3 51.4175 1865.46 49.9708 Q1863.65 48.524 1857.47 47.1858 L1855.15 46.6433 Q1848.97 45.3412 1846.22 42.6647 Q1843.47 39.952 1843.47 35.2501 Q1843.47 29.5354 1847.52 26.4249 Q1851.57 23.3144 1859.02 23.3144 Q1862.71 23.3144 1865.97 23.8569 Q1869.22 24.3995 1871.97 25.4845 Z" fill="#000000" fill-rule="evenodd" fill-opacity="1" /><path clip-path="url(#clip980)" d="M 0 0 M1914.79 40.3499 L1914.79 64.8 L1908.14 64.8 L1908.14 40.5669 Q1908.14 34.8161 1905.9 31.9587 Q1903.65 29.1014 1899.17 29.1014 Q1893.78 29.1014 1890.67 32.5374 Q1887.56 35.9735 1887.56 41.9052 L1887.56 64.8 L1880.87 64.8 L1880.87 8.52137 L1887.56 8.52137 L1887.56 30.5843 Q1889.95 26.9313 1893.16 25.1228 Q1896.42 23.3144 1900.65 23.3144 Q1907.63 23.3144 1911.21 27.6547 Q1914.79 31.9587 1914.79 40.3499 Z" fill="#000000" fill-rule="evenodd" fill-opacity="1" /><path clip-path="url(#clip980)" d="M 0 0 M1937.47 28.9567 Q1932.12 28.9567 1929.01 33.1523 Q1925.9 37.3117 1925.9 44.5816 Q1925.9 51.8516 1928.97 56.0472 Q1932.08 60.2066 1937.47 60.2066 Q1942.79 60.2066 1945.9 56.011 Q1949.01 51.8154 1949.01 44.5816 Q1949.01 37.3841 1945.9 33.1885 Q1942.79 28.9567 1937.47 28.9567 M1937.47 23.3144 Q1946.15 23.3144 1951.11 28.9567 Q1956.06 34.5991 1956.06 44.5816 Q1956.06 54.5281 1951.11 60.2066 Q1946.15 65.8489 1937.47 65.8489 Q1928.75 65.8489 1923.8 60.2066 Q1918.88 54.5281 1918.88 44.5816 Q1918.88 34.5991 1923.8 28.9567 Q1928.75 23.3144 1937.47 23.3144 Z" fill="#000000" fill-rule="evenodd" fill-opacity="1" /><path clip-path="url(#clip980)" d="M 0 0 M1959.17 24.291 L1965.83 24.291 L1974.15 55.9025 L1982.43 24.291 L1990.28 24.291 L1998.6 55.9025 L2006.88 24.291 L2013.53 24.291 L2002.94 64.8 L1995.09 64.8 L1986.37 31.5971 L1977.62 64.8 L1969.77 64.8 L1959.17 24.291 Z" fill="#000000" fill-rule="evenodd" fill-opacity="1" /><path clip-path="url(#clip980)" d="M 0 0 M2055.16 42.8817 L2055.16 46.1369 L2024.57 46.1369 Q2025 53.009 2028.69 56.6259 Q2032.41 60.2066 2039.03 60.2066 Q2042.87 60.2066 2046.45 59.2662 Q2050.06 58.3258 2053.61 56.445 L2053.61 62.7384 Q2050.03 64.2575 2046.27 65.0532 Q2042.51 65.8489 2038.64 65.8489 Q2028.94 65.8489 2023.26 60.2066 Q2017.62 54.5642 2017.62 44.9433 Q2017.62 34.9969 2022.97 29.1737 Q2028.36 23.3144 2037.48 23.3144 Q2045.65 23.3144 2050.39 28.595 Q2055.16 33.8395 2055.16 42.8817 M2048.51 40.9286 Q2048.44 35.4671 2045.44 32.2119 Q2042.47 28.9567 2037.55 28.9567 Q2031.98 28.9567 2028.62 32.1034 Q2025.29 35.2501 2024.78 40.9648 L2048.51 40.9286 Z" fill="#000000" fill-rule="evenodd" fill-opacity="1" /><path clip-path="url(#clip980)" d="M 0 0 M2085.62 30.512 Q2084.5 29.861 2083.16 29.5716 Q2081.86 29.2461 2080.27 29.2461 Q2074.62 29.2461 2071.59 32.9353 Q2068.58 36.5883 2068.58 43.4604 L2068.58 64.8 L2061.89 64.8 L2061.89 24.291 L2068.58 24.291 L2068.58 30.5843 Q2070.68 26.8951 2074.04 25.1228 Q2077.41 23.3144 2082.22 23.3144 Q2082.91 23.3144 2083.74 23.4229 Q2084.57 23.4952 2085.58 23.6761 L2085.62 30.512 Z" fill="#000000" fill-rule="evenodd" fill-opacity="1" /><path clip-path="url(#clip980)" d="M 0 0 M2118.42 25.4845 L2118.42 31.7779 Q2115.6 30.3311 2112.56 29.6078 Q2109.53 28.8844 2106.27 28.8844 Q2101.32 28.8844 2098.82 30.4035 Q2096.36 31.9226 2096.36 34.9608 Q2096.36 37.2756 2098.13 38.6138 Q2099.91 39.9159 2105.26 41.1094 L2107.54 41.6158 Q2114.63 43.1349 2117.59 45.9199 Q2120.59 48.6687 2120.59 53.6238 Q2120.59 59.2662 2116.11 62.5575 Q2111.66 65.8489 2103.85 65.8489 Q2100.59 65.8489 2097.05 65.1979 Q2093.54 64.583 2089.63 63.3171 L2089.63 56.445 Q2093.32 58.362 2096.9 59.3385 Q2100.48 60.2789 2103.99 60.2789 Q2108.69 60.2789 2111.23 58.6875 Q2113.76 57.0599 2113.76 54.1302 Q2113.76 51.4175 2111.91 49.9708 Q2110.11 48.524 2103.92 47.1858 L2101.61 46.6433 Q2095.42 45.3412 2092.67 42.6647 Q2089.92 39.952 2089.92 35.2501 Q2089.92 29.5354 2093.97 26.4249 Q2098.02 23.3144 2105.48 23.3144 Q2109.16 23.3144 2112.42 23.8569 Q2115.68 24.3995 2118.42 25.4845 Z" fill="#000000" fill-rule="evenodd" fill-opacity="1" /><polyline clip-path="url(#clip982)" style="stroke:#009af9; stroke-width:7.5; stroke-opacity:1; fill:none" points="
  456.268,1190.94 1001.66,1028.13 1414.24,988.241 1655.58,1141.25 1826.81,1012.61 2372.21,928.554 2784.78,554.005 
  "/>
<circle clip-path="url(#clip982)" cx="456.268" cy="1190.94" r="13" fill="#ff0000" fill-rule="evenodd" fill-opacity="1" stroke="#000000" stroke-opacity="1" stroke-width="2"/>
<circle clip-path="url(#clip982)" cx="1001.66" cy="1028.13" r="13" fill="#ff0000" fill-rule="evenodd" fill-opacity="1" stroke="#000000" stroke-opacity="1" stroke-width="2"/>
<circle clip-path="url(#clip982)" cx="1414.24" cy="988.241" r="13" fill="#ff0000" fill-rule="evenodd" fill-opacity="1" stroke="#000000" stroke-opacity="1" stroke-width="2"/>
<circle clip-path="url(#clip982)" cx="1655.58" cy="1141.25" r="13" fill="#ff0000" fill-rule="evenodd" fill-opacity="1" stroke="#000000" stroke-opacity="1" stroke-width="2"/>
<circle clip-path="url(#clip982)" cx="1826.81" cy="1012.61" r="13" fill="#ff0000" fill-rule="evenodd" fill-opacity="1" stroke="#000000" stroke-opacity="1" stroke-width="2"/>
<circle clip-path="url(#clip982)" cx="2372.21" cy="928.554" r="13" fill="#ff0000" fill-rule="evenodd" fill-opacity="1" stroke="#000000" stroke-opacity="1" stroke-width="2"/>
<circle clip-path="url(#clip982)" cx="2784.78" cy="554.005" r="13" fill="#ff0000" fill-rule="evenodd" fill-opacity="1" stroke="#000000" stroke-opacity="1" stroke-width="2"/>
<path clip-path="url(#clip980)" d="
M1971.7 469.232 L2852.92 469.232 L2852.92 185.732 L1971.7 185.732  Z
  " fill="#ffffff" fill-rule="evenodd" fill-opacity="1"/>
<polyline clip-path="url(#clip980)" style="stroke:#000000; stroke-width:5; stroke-opacity:1; fill:none" points="
  1971.7,469.232 2852.92,469.232 2852.92,185.732 1971.7,185.732 1971.7,469.232 
  "/>
<path clip-path="url(#clip980)" d="M 0 0 M2124.47 257.136 L2124.47 279.456 L2134.58 279.456 Q2140.19 279.456 2143.25 276.552 Q2146.32 273.647 2146.32 268.276 Q2146.32 262.945 2143.25 260.041 Q2140.19 257.136 2134.58 257.136 L2124.47 257.136 M2116.44 250.532 L2134.58 250.532 Q2144.57 250.532 2149.66 255.067 Q2154.79 259.563 2154.79 268.276 Q2154.79 277.069 2149.66 281.565 Q2144.57 286.06 2134.58 286.06 L2124.47 286.06 L2124.47 309.932 L2116.44 309.932 L2116.44 250.532 Z" fill="#000000" fill-rule="evenodd" fill-opacity="1" /><path clip-path="url(#clip980)" d="M 0 0 M2186.86 272.215 Q2185.63 271.499 2184.15 271.181 Q2182.72 270.823 2180.97 270.823 Q2174.76 270.823 2171.42 274.881 Q2168.12 278.899 2168.12 286.458 L2168.12 309.932 L2160.76 309.932 L2160.76 265.372 L2168.12 265.372 L2168.12 272.295 Q2170.43 268.236 2174.13 266.287 Q2177.83 264.298 2183.12 264.298 Q2183.87 264.298 2184.79 264.417 Q2185.7 264.497 2186.82 264.696 L2186.86 272.215 Z" fill="#000000" fill-rule="evenodd" fill-opacity="1" /><path clip-path="url(#clip980)" d="M 0 0 M2194.54 265.372 L2201.86 265.372 L2201.86 309.932 L2194.54 309.932 L2194.54 265.372 M2194.54 248.025 L2201.86 248.025 L2201.86 257.295 L2194.54 257.295 L2194.54 248.025 Z" fill="#000000" fill-rule="evenodd" fill-opacity="1" /><path clip-path="url(#clip980)" d="M 0 0 M2244.23 273.926 Q2246.97 268.992 2250.79 266.645 Q2254.61 264.298 2259.79 264.298 Q2266.75 264.298 2270.53 269.191 Q2274.31 274.045 2274.31 283.037 L2274.31 309.932 L2266.95 309.932 L2266.95 283.275 Q2266.95 276.87 2264.68 273.767 Q2262.41 270.663 2257.76 270.663 Q2252.07 270.663 2248.77 274.443 Q2245.46 278.223 2245.46 284.748 L2245.46 309.932 L2238.1 309.932 L2238.1 283.275 Q2238.1 276.83 2235.83 273.767 Q2233.57 270.663 2228.83 270.663 Q2223.22 270.663 2219.92 274.483 Q2216.62 278.262 2216.62 284.748 L2216.62 309.932 L2209.26 309.932 L2209.26 265.372 L2216.62 265.372 L2216.62 272.295 Q2219.12 268.197 2222.63 266.247 Q2226.13 264.298 2230.94 264.298 Q2235.8 264.298 2239.18 266.764 Q2242.6 269.231 2244.23 273.926 Z" fill="#000000" fill-rule="evenodd" fill-opacity="1" /><path clip-path="url(#clip980)" d="M 0 0 M2302.24 287.533 Q2293.36 287.533 2289.94 289.562 Q2286.52 291.591 2286.52 296.484 Q2286.52 300.383 2289.07 302.691 Q2291.65 304.959 2296.07 304.959 Q2302.16 304.959 2305.82 300.662 Q2309.52 296.325 2309.52 289.164 L2309.52 287.533 L2302.24 287.533 M2316.84 284.509 L2316.84 309.932 L2309.52 309.932 L2309.52 303.168 Q2307.01 307.226 2303.27 309.176 Q2299.53 311.086 2294.12 311.086 Q2287.28 311.086 2283.22 307.266 Q2279.2 303.407 2279.2 296.962 Q2279.2 289.442 2284.21 285.623 Q2289.27 281.803 2299.25 281.803 L2309.52 281.803 L2309.52 281.087 Q2309.52 276.034 2306.18 273.289 Q2302.87 270.504 2296.87 270.504 Q2293.05 270.504 2289.43 271.419 Q2285.81 272.334 2282.46 274.165 L2282.46 267.401 Q2286.48 265.849 2290.26 265.093 Q2294.04 264.298 2297.62 264.298 Q2307.29 264.298 2312.06 269.311 Q2316.84 274.324 2316.84 284.509 Z" fill="#000000" fill-rule="evenodd" fill-opacity="1" /><path clip-path="url(#clip980)" d="M 0 0 M2350.34 272.215 Q2349.1 271.499 2347.63 271.181 Q2346.2 270.823 2344.45 270.823 Q2338.24 270.823 2334.9 274.881 Q2331.6 278.899 2331.6 286.458 L2331.6 309.932 L2324.24 309.932 L2324.24 265.372 L2331.6 265.372 L2331.6 272.295 Q2333.91 268.236 2337.61 266.287 Q2341.31 264.298 2346.6 264.298 Q2347.35 264.298 2348.27 264.417 Q2349.18 264.497 2350.3 264.696 L2350.34 272.215 Z" fill="#000000" fill-rule="evenodd" fill-opacity="1" /><path clip-path="url(#clip980)" d="M 0 0 M2376.56 314.07 Q2373.45 322.027 2370.51 324.454 Q2367.57 326.881 2362.63 326.881 L2356.78 326.881 L2356.78 320.754 L2361.08 320.754 Q2364.1 320.754 2365.77 319.321 Q2367.45 317.889 2369.47 312.558 L2370.79 309.216 L2352.76 265.372 L2360.52 265.372 L2374.45 300.224 L2388.37 265.372 L2396.13 265.372 L2376.56 314.07 Z" fill="#000000" fill-rule="evenodd" fill-opacity="1" /><path clip-path="url(#clip980)" d="M 0 0 M2438.07 257.136 L2438.07 279.456 L2448.17 279.456 Q2453.78 279.456 2456.84 276.552 Q2459.91 273.647 2459.91 268.276 Q2459.91 262.945 2456.84 260.041 Q2453.78 257.136 2448.17 257.136 L2438.07 257.136 M2430.03 250.532 L2448.17 250.532 Q2458.16 250.532 2463.25 255.067 Q2468.38 259.563 2468.38 268.276 Q2468.38 277.069 2463.25 281.565 Q2458.16 286.06 2448.17 286.06 L2438.07 286.06 L2438.07 309.932 L2430.03 309.932 L2430.03 250.532 Z" fill="#000000" fill-rule="evenodd" fill-opacity="1" /><path clip-path="url(#clip980)" d="M 0 0 M2492.65 287.533 Q2483.78 287.533 2480.36 289.562 Q2476.94 291.591 2476.94 296.484 Q2476.94 300.383 2479.48 302.691 Q2482.07 304.959 2486.48 304.959 Q2492.57 304.959 2496.23 300.662 Q2499.93 296.325 2499.93 289.164 L2499.93 287.533 L2492.65 287.533 M2507.25 284.509 L2507.25 309.932 L2499.93 309.932 L2499.93 303.168 Q2497.43 307.226 2493.69 309.176 Q2489.95 311.086 2484.54 311.086 Q2477.69 311.086 2473.63 307.266 Q2469.62 303.407 2469.62 296.962 Q2469.62 289.442 2474.63 285.623 Q2479.68 281.803 2489.67 281.803 L2499.93 281.803 L2499.93 281.087 Q2499.93 276.034 2496.59 273.289 Q2493.29 270.504 2487.28 270.504 Q2483.46 270.504 2479.84 271.419 Q2476.22 272.334 2472.88 274.165 L2472.88 267.401 Q2476.9 265.849 2480.68 265.093 Q2484.46 264.298 2488.04 264.298 Q2497.7 264.298 2502.48 269.311 Q2507.25 274.324 2507.25 284.509 Z" fill="#000000" fill-rule="evenodd" fill-opacity="1" /><path clip-path="url(#clip980)" d="M 0 0 M2540.75 272.215 Q2539.52 271.499 2538.05 271.181 Q2536.61 270.823 2534.86 270.823 Q2528.66 270.823 2525.32 274.881 Q2522.01 278.899 2522.01 286.458 L2522.01 309.932 L2514.65 309.932 L2514.65 265.372 L2522.01 265.372 L2522.01 272.295 Q2524.32 268.236 2528.02 266.287 Q2531.72 264.298 2537.01 264.298 Q2537.77 264.298 2538.68 264.417 Q2539.6 264.497 2540.71 264.696 L2540.75 272.215 Z" fill="#000000" fill-rule="evenodd" fill-opacity="1" /><path clip-path="url(#clip980)" d="M 0 0 M2555.67 252.72 L2555.67 265.372 L2570.75 265.372 L2570.75 271.061 L2555.67 271.061 L2555.67 295.251 Q2555.67 300.702 2557.14 302.253 Q2558.66 303.805 2563.23 303.805 L2570.75 303.805 L2570.75 309.932 L2563.23 309.932 Q2554.76 309.932 2551.53 306.789 Q2548.31 303.606 2548.31 295.251 L2548.31 271.061 L2542.94 271.061 L2542.94 265.372 L2548.31 265.372 L2548.31 252.72 L2555.67 252.72 Z" fill="#000000" fill-rule="evenodd" fill-opacity="1" /><path clip-path="url(#clip980)" d="M 0 0 M2578.43 265.372 L2585.75 265.372 L2585.75 309.932 L2578.43 309.932 L2578.43 265.372 M2578.43 248.025 L2585.75 248.025 L2585.75 257.295 L2578.43 257.295 L2578.43 248.025 Z" fill="#000000" fill-rule="evenodd" fill-opacity="1" /><path clip-path="url(#clip980)" d="M 0 0 M2625.5 267.083 L2625.5 273.926 Q2622.39 272.215 2619.25 271.38 Q2616.15 270.504 2612.96 270.504 Q2605.84 270.504 2601.9 275.04 Q2597.96 279.536 2597.96 287.692 Q2597.96 295.848 2601.9 300.383 Q2605.84 304.879 2612.96 304.879 Q2616.15 304.879 2619.25 304.044 Q2622.39 303.168 2625.5 301.458 L2625.5 308.221 Q2622.43 309.653 2619.13 310.37 Q2615.87 311.086 2612.17 311.086 Q2602.1 311.086 2596.17 304.76 Q2590.25 298.434 2590.25 287.692 Q2590.25 276.79 2596.21 270.544 Q2602.22 264.298 2612.64 264.298 Q2616.03 264.298 2619.25 265.014 Q2622.47 265.69 2625.5 267.083 Z" fill="#000000" fill-rule="evenodd" fill-opacity="1" /><path clip-path="url(#clip980)" d="M 0 0 M2633.17 248.025 L2640.49 248.025 L2640.49 309.932 L2633.17 309.932 L2633.17 248.025 Z" fill="#000000" fill-rule="evenodd" fill-opacity="1" /><path clip-path="url(#clip980)" d="M 0 0 M2686.29 285.822 L2686.29 289.402 L2652.63 289.402 Q2653.11 296.962 2657.17 300.94 Q2661.26 304.879 2668.54 304.879 Q2672.76 304.879 2676.7 303.845 Q2680.68 302.81 2684.58 300.741 L2684.58 307.664 Q2680.64 309.335 2676.5 310.21 Q2672.36 311.086 2668.11 311.086 Q2657.44 311.086 2651.2 304.879 Q2644.99 298.673 2644.99 288.09 Q2644.99 277.148 2650.88 270.743 Q2656.81 264.298 2666.83 264.298 Q2675.82 264.298 2681.04 270.106 Q2686.29 275.875 2686.29 285.822 M2678.97 283.673 Q2678.89 277.666 2675.59 274.085 Q2672.32 270.504 2666.91 270.504 Q2660.79 270.504 2657.09 273.966 Q2653.43 277.427 2652.87 283.713 L2678.97 283.673 Z" fill="#000000" fill-rule="evenodd" fill-opacity="1" /><path clip-path="url(#clip980)" d="M 0 0 M2695.84 299.826 L2704.23 299.826 L2704.23 309.932 L2695.84 309.932 L2695.84 299.826 M2695.84 267.799 L2704.23 267.799 L2704.23 277.904 L2695.84 277.904 L2695.84 267.799 Z" fill="#000000" fill-rule="evenodd" fill-opacity="1" /><polyline clip-path="url(#clip980)" style="stroke:#009af9; stroke-width:6.25; stroke-opacity:1; fill:none" points="
  2001.04,374.732 2177.1,374.732 
  "/>
<circle clip-path="url(#clip980)" cx="2089.07" cy="374.732" r="35" fill="#ff0000" fill-rule="evenodd" fill-opacity="1" stroke="#000000" stroke-opacity="1" stroke-width="5.33333"/>
<path clip-path="url(#clip980)" d="M 0 0 M2213.74 353.736 L2213.74 374.027 L2222.93 374.027 Q2228.03 374.027 2230.82 371.386 Q2233.6 368.746 2233.6 363.863 Q2233.6 359.017 2230.82 356.376 Q2228.03 353.736 2222.93 353.736 L2213.74 353.736 M2206.44 347.732 L2222.93 347.732 Q2232.01 347.732 2236.64 351.855 Q2241.3 355.942 2241.3 363.863 Q2241.3 371.856 2236.64 375.944 Q2232.01 380.031 2222.93 380.031 L2213.74 380.031 L2213.74 401.732 L2206.44 401.732 L2206.44 347.732 Z" fill="#000000" fill-rule="evenodd" fill-opacity="1" /><path clip-path="url(#clip980)" d="M 0 0 M2281.96 377.282 L2281.96 401.732 L2275.3 401.732 L2275.3 377.499 Q2275.3 371.748 2273.06 368.891 Q2270.82 366.033 2266.33 366.033 Q2260.94 366.033 2257.83 369.469 Q2254.72 372.905 2254.72 378.837 L2254.72 401.732 L2248.03 401.732 L2248.03 345.453 L2254.72 345.453 L2254.72 367.516 Q2257.11 363.863 2260.33 362.055 Q2263.58 360.246 2267.82 360.246 Q2274.8 360.246 2278.38 364.587 Q2281.96 368.891 2281.96 377.282 Z" fill="#000000" fill-rule="evenodd" fill-opacity="1" /><path clip-path="url(#clip980)" d="M 0 0 M2304.64 365.889 Q2299.28 365.889 2296.17 370.084 Q2293.06 374.244 2293.06 381.514 Q2293.06 388.783 2296.14 392.979 Q2299.25 397.138 2304.64 397.138 Q2309.95 397.138 2313.06 392.943 Q2316.17 388.747 2316.17 381.514 Q2316.17 374.316 2313.06 370.12 Q2309.95 365.889 2304.64 365.889 M2304.64 360.246 Q2313.32 360.246 2318.27 365.889 Q2323.23 371.531 2323.23 381.514 Q2323.23 391.46 2318.27 397.138 Q2313.32 402.781 2304.64 402.781 Q2295.92 402.781 2290.96 397.138 Q2286.05 391.46 2286.05 381.514 Q2286.05 371.531 2290.96 365.889 Q2295.92 360.246 2304.64 360.246 Z" fill="#000000" fill-rule="evenodd" fill-opacity="1" /><path clip-path="url(#clip980)" d="M 0 0 M2336.79 349.721 L2336.79 361.223 L2350.5 361.223 L2350.5 366.395 L2336.79 366.395 L2336.79 388.386 Q2336.79 393.341 2338.13 394.751 Q2339.5 396.162 2343.66 396.162 L2350.5 396.162 L2350.5 401.732 L2343.66 401.732 Q2335.96 401.732 2333.03 398.875 Q2330.1 395.981 2330.1 388.386 L2330.1 366.395 L2325.22 366.395 L2325.22 361.223 L2330.1 361.223 L2330.1 349.721 L2336.79 349.721 Z" fill="#000000" fill-rule="evenodd" fill-opacity="1" /><path clip-path="url(#clip980)" d="M 0 0 M2373.18 365.889 Q2367.82 365.889 2364.71 370.084 Q2361.6 374.244 2361.6 381.514 Q2361.6 388.783 2364.68 392.979 Q2367.79 397.138 2373.18 397.138 Q2378.49 397.138 2381.6 392.943 Q2384.71 388.747 2384.71 381.514 Q2384.71 374.316 2381.6 370.12 Q2378.49 365.889 2373.18 365.889 M2373.18 360.246 Q2381.86 360.246 2386.81 365.889 Q2391.77 371.531 2391.77 381.514 Q2391.77 391.46 2386.81 397.138 Q2381.86 402.781 2373.18 402.781 Q2364.46 402.781 2359.5 397.138 Q2354.59 391.46 2354.59 381.514 Q2354.59 371.531 2359.5 365.889 Q2364.46 360.246 2373.18 360.246 Z" fill="#000000" fill-rule="evenodd" fill-opacity="1" /><path clip-path="url(#clip980)" d="M 0 0 M2432.42 377.282 L2432.42 401.732 L2425.77 401.732 L2425.77 377.499 Q2425.77 371.748 2423.52 368.891 Q2421.28 366.033 2416.8 366.033 Q2411.41 366.033 2408.3 369.469 Q2405.19 372.905 2405.19 378.837 L2405.19 401.732 L2398.49 401.732 L2398.49 361.223 L2405.19 361.223 L2405.19 367.516 Q2407.57 363.863 2410.79 362.055 Q2414.05 360.246 2418.28 360.246 Q2425.26 360.246 2428.84 364.587 Q2432.42 368.891 2432.42 377.282 Z" fill="#000000" fill-rule="evenodd" fill-opacity="1" /></svg>
